<?xml version="1.0" encoding="UTF-8" standalone="no"?>
<svg
   xmlns:dc="http://purl.org/dc/elements/1.1/"
   xmlns:cc="http://creativecommons.org/ns#"
   xmlns:rdf="http://www.w3.org/1999/02/22-rdf-syntax-ns#"
   xmlns:svg="http://www.w3.org/2000/svg"
   xmlns="http://www.w3.org/2000/svg"
   viewBox="0 0 357.24799 123.96213"
   height="123.96213"
   width="357.24799"
   xml:space="preserve"
   id="svg2"
   version="1.1"><metadata
     id="metadata8"><rdf:RDF><cc:Work
         rdf:about=""><dc:format>image/svg+xml</dc:format><dc:type
           rdf:resource="http://purl.org/dc/dcmitype/StillImage" /></cc:Work></rdf:RDF></metadata><defs
     id="defs6"><clipPath
       id="clipPath18"
       clipPathUnits="userSpaceOnUse"><path
         id="path16"
         d="M 0,92.972 H 267.936 V 0 H 0 Z" /></clipPath></defs><g
     transform="matrix(1.3333333,0,0,-1.3333333,0,123.96213)"
     id="g10"><g
       id="g12"><g
         clip-path="url(#clipPath18)"
         id="g14"><path
           id="path20"
           style="fill:#0087cd;fill-opacity:1;fill-rule:evenodd;stroke:none"
           d="M 0.132,73.663 H 10.16 V 66.839 H 0.132 Z m 0,-9.947 H 10.16 V 37.572 H 0.132 Z m 11.725,0 h 9.338 v -4.252 c 1.393,1.737 2.802,2.974 4.235,3.722 1.427,0.748 3.164,1.128 5.218,1.128 2.774,0 4.943,-0.834 6.513,-2.48 1.565,-1.651 2.348,-4.194 2.348,-7.641 V 37.566 H 29.44 V 51.95 c 0,1.639 -0.305,2.796 -0.909,3.475 -0.616,0.69 -1.461,1.03 -2.566,1.03 -1.208,0 -2.198,-0.466 -2.952,-1.381 C 22.26,54.159 21.88,52.502 21.88,50.126 V 37.566 H 11.857 Z m 41.029,9.947 v -9.947 h 5.512 v -7.313 h -5.512 v -9.281 c 0,-1.116 0.109,-1.858 0.316,-2.215 0.328,-0.558 0.903,-0.84 1.726,-0.84 0.742,0 1.772,0.219 3.101,0.645 l 0.743,-6.927 c -2.48,-0.536 -4.793,-0.806 -6.945,-0.806 -2.497,0 -4.338,0.322 -5.512,0.961 -1.185,0.638 -2.06,1.611 -2.623,2.917 -0.57,1.3 -0.852,3.417 -0.852,6.34 v 9.206 h -3.694 v 7.313 H 42.84 V 68.52 Z M 87.505,48.158 H 67.419 c 0.173,-1.617 0.61,-2.808 1.3,-3.596 0.967,-1.133 2.239,-1.697 3.792,-1.697 0.984,0 1.922,0.241 2.808,0.736 0.546,0.311 1.122,0.858 1.749,1.646 l 9.873,-0.903 c -1.513,-2.63 -3.331,-4.517 -5.466,-5.656 -2.135,-1.134 -5.19,-1.709 -9.183,-1.709 -3.463,0 -6.185,0.489 -8.175,1.461 -1.985,0.979 -3.631,2.532 -4.937,4.661 -1.3,2.123 -1.956,4.62 -1.956,7.497 0,4.085 1.312,7.393 3.924,9.913 2.623,2.531 6.237,3.803 10.851,3.803 3.74,0 6.697,-0.575 8.855,-1.709 2.169,-1.128 3.826,-2.773 4.953,-4.919 1.134,-2.146 1.698,-4.948 1.698,-8.394 z m -10.19,4.799 c -0.201,1.938 -0.719,3.331 -1.559,4.159 -0.852,0.84 -1.962,1.26 -3.337,1.26 -1.6,0 -2.865,-0.638 -3.826,-1.898 -0.604,-0.789 -0.99,-1.957 -1.151,-3.521 z M 87.51,63.716 h 9.379 v -4.281 c 0.909,1.853 1.841,3.13 2.802,3.826 0.955,0.696 2.14,1.053 3.555,1.053 1.479,0 3.09,-0.466 4.85,-1.381 l -3.101,-7.146 c -1.179,0.501 -2.123,0.742 -2.807,0.742 -1.312,0 -2.331,-0.546 -3.056,-1.622 -1.029,-1.53 -1.553,-4.39 -1.553,-8.573 V 37.566 H 87.51 Z" /><g
           transform="translate(104.8751,45.3757)"
           id="g22"><path
             id="path24"
             style="fill:#0e7898;fill-opacity:1;fill-rule:evenodd;stroke:none"
             d="m 0,0 4.378,0.69 c 0.242,-1.754 0.932,-3.101 2.06,-4.044 1.116,-0.932 2.687,-1.404 4.712,-1.404 2.037,0 3.55,0.42 4.534,1.243 0.984,0.834 1.479,1.812 1.479,2.917 0,1.012 -0.438,1.789 -1.312,2.37 -0.604,0.397 -2.117,0.892 -4.528,1.496 -3.245,0.823 -5.506,1.53 -6.76,2.135 -1.255,0.598 -2.21,1.432 -2.86,2.491 -0.644,1.058 -0.972,2.226 -0.972,3.504 0,1.168 0.27,2.244 0.805,3.233 0.529,1.001 1.26,1.824 2.181,2.48 0.684,0.506 1.628,0.944 2.813,1.294 1.191,0.351 2.468,0.53 3.832,0.53 2.054,0 3.849,-0.305 5.403,-0.892 1.559,-0.587 2.698,-1.387 3.44,-2.393 0.737,-1.019 1.243,-2.365 1.519,-4.051 l -4.326,-0.598 c -0.202,1.346 -0.777,2.393 -1.715,3.153 -0.944,0.753 -2.278,1.133 -3.999,1.133 -2.036,0 -3.492,-0.334 -4.355,-1.007 C 5.454,13.607 5.017,12.819 5.017,11.916 5.017,11.34 5.201,10.822 5.564,10.362 5.926,9.885 6.49,9.499 7.261,9.177 7.71,9.016 9.01,8.642 11.179,8.049 c 3.136,-0.84 5.316,-1.519 6.553,-2.054 1.243,-0.529 2.221,-1.312 2.923,-2.33 0.708,-1.018 1.064,-2.278 1.064,-3.792 0,-1.478 -0.437,-2.865 -1.294,-4.177 -0.869,-1.3 -2.112,-2.313 -3.734,-3.026 -1.623,-0.713 -3.464,-1.064 -5.512,-1.064 -3.406,0 -5.995,0.702 -7.773,2.117 C 1.622,-4.867 0.489,-2.773 0,0 m 21.921,5.27 c 0,4.839 1.346,8.429 4.045,10.759 2.243,1.933 4.982,2.906 8.216,2.906 3.595,0 6.541,-1.174 8.82,-3.539 2.284,-2.353 3.417,-5.604 3.417,-9.758 0,-3.371 -0.506,-6.018 -1.513,-7.939 -1.007,-1.934 -2.48,-3.43 -4.401,-4.5 -1.934,-1.064 -4.034,-1.593 -6.323,-1.593 -3.654,0 -6.611,1.168 -8.872,3.521 -2.261,2.341 -3.389,5.725 -3.389,10.143 m 4.557,0 c 0,-3.354 0.73,-5.857 2.192,-7.52 1.461,-1.674 3.302,-2.508 5.512,-2.508 2.203,0 4.033,0.84 5.5,2.514 1.45,1.674 2.181,4.229 2.181,7.658 0,3.234 -0.731,5.69 -2.198,7.353 -1.473,1.663 -3.297,2.497 -5.483,2.497 -2.21,0 -4.051,-0.834 -5.512,-2.491 C 27.208,11.122 26.478,8.613 26.478,5.27 M 47.248,-7.808 V 14.89 h -3.913 v 3.446 h 3.913 v 2.785 c 0,1.755 0.155,3.067 0.472,3.918 0.425,1.151 1.173,2.083 2.249,2.796 1.076,0.714 2.584,1.071 4.522,1.071 1.243,0 2.624,-0.144 4.137,-0.449 l -0.667,-3.866 c -0.915,0.166 -1.789,0.253 -2.612,0.253 -1.347,0 -2.296,-0.288 -2.848,-0.863 -0.564,-0.576 -0.84,-1.652 -0.84,-3.228 v -2.417 h 5.092 V 14.89 H 51.661 V -7.808 Z m 22.542,3.97 0.639,-3.918 c -1.243,-0.259 -2.365,-0.397 -3.343,-0.397 -1.617,0 -2.86,0.253 -3.751,0.765 -0.881,0.507 -1.502,1.18 -1.864,2.008 -0.363,0.823 -0.547,2.572 -0.547,5.23 v 15.04 h -3.251 v 3.446 h 3.251 v 6.485 l 4.413,2.652 V 18.336 H 69.79 V 14.89 H 65.337 V -0.397 c 0,-1.266 0.075,-2.071 0.224,-2.434 0.161,-0.362 0.414,-0.65 0.765,-0.869 0.351,-0.207 0.858,-0.316 1.514,-0.316 0.494,0 1.145,0.058 1.95,0.178 m 5.247,-3.97 -8.003,26.144 h 4.58 l 4.16,-15.091 1.547,-5.615 c 0.069,0.287 0.524,2.082 1.352,5.396 l 4.166,15.31 h 4.551 l 3.918,-15.16 1.312,-5 1.496,5.052 4.476,15.108 h 4.315 L 94.726,-7.808 h -4.597 l -4.16,15.656 -1.013,4.465 -5.287,-20.121 z m 44.74,3.228 c -1.646,-1.398 -3.228,-2.376 -4.741,-2.957 -1.519,-0.575 -3.153,-0.857 -4.891,-0.857 -2.877,0 -5.074,0.696 -6.622,2.1 -1.536,1.403 -2.313,3.199 -2.313,5.379 0,1.283 0.288,2.451 0.875,3.51 0.581,1.058 1.346,1.91 2.284,2.549 0.949,0.638 2.008,1.127 3.193,1.455 0.869,0.225 2.18,0.455 3.935,0.662 3.579,0.431 6.22,0.932 7.911,1.53 0.018,0.604 0.023,0.99 0.023,1.151 0,1.807 -0.42,3.084 -1.26,3.815 -1.127,1.012 -2.813,1.507 -5.045,1.507 -2.083,0 -3.619,-0.362 -4.621,-1.093 -0.989,-0.731 -1.72,-2.025 -2.203,-3.884 l -4.327,0.599 c 0.397,1.847 1.042,3.354 1.945,4.487 0.897,1.14 2.209,2.026 3.912,2.635 1.709,0.616 3.683,0.927 5.932,0.927 2.238,0 4.045,-0.271 5.443,-0.788 1.392,-0.53 2.417,-1.186 3.084,-1.985 0.656,-0.8 1.11,-1.795 1.375,-3.015 0.144,-0.76 0.219,-2.118 0.219,-4.085 V 3.153 c 0,-4.125 0.092,-6.732 0.287,-7.819 0.184,-1.093 0.564,-2.14 1.116,-3.142 h -4.631 c -0.455,0.915 -0.754,1.991 -0.88,3.228 m -0.369,9.902 c -1.616,-0.667 -4.027,-1.22 -7.238,-1.68 -1.823,-0.265 -3.118,-0.558 -3.866,-0.886 -0.754,-0.328 -1.346,-0.806 -1.749,-1.444 -0.408,-0.633 -0.621,-1.329 -0.621,-2.1 0,-1.185 0.454,-2.169 1.346,-2.958 0.892,-0.782 2.204,-1.179 3.924,-1.179 1.703,0 3.228,0.368 4.557,1.116 1.329,0.748 2.307,1.778 2.928,3.073 0.483,0.995 0.719,2.474 0.719,4.424 z m 7.388,-13.13 v 26.144 h 3.981 v -3.958 c 1.019,1.853 1.962,3.078 2.825,3.665 0.858,0.587 1.807,0.892 2.843,0.892 1.495,0 3.009,-0.478 4.556,-1.427 l -1.53,-4.12 c -1.076,0.651 -2.158,0.967 -3.245,0.967 -0.972,0 -1.841,-0.293 -2.612,-0.875 -0.777,-0.586 -1.324,-1.392 -1.651,-2.428 -0.495,-1.57 -0.737,-3.296 -0.737,-5.166 V -7.808 Z m 30.821,8.424 4.58,-0.564 c -0.719,-2.681 -2.059,-4.758 -4.01,-6.237 -1.956,-1.473 -4.453,-2.209 -7.485,-2.209 -3.826,0 -6.858,1.173 -9.097,3.527 -2.243,2.353 -3.36,5.655 -3.36,9.907 0,4.407 1.134,7.819 3.395,10.247 2.273,2.428 5.201,3.648 8.82,3.648 3.492,0 6.352,-1.191 8.561,-3.573 2.221,-2.376 3.326,-5.731 3.326,-10.04 0,-0.27 -0.006,-0.667 -0.023,-1.185 h -19.499 c 0.161,-2.877 0.978,-5.081 2.44,-6.6 1.461,-1.53 3.273,-2.295 5.46,-2.295 1.622,0 3.009,0.431 4.16,1.289 1.15,0.845 2.059,2.209 2.732,4.085 m -14.544,7.168 h 14.596 c -0.195,2.193 -0.759,3.85 -1.674,4.943 -1.41,1.703 -3.245,2.56 -5.489,2.56 -2.031,0 -3.745,-0.679 -5.132,-2.042 -1.387,-1.364 -2.152,-3.182 -2.301,-5.461" /></g><g
           transform="translate(5.9995,25.9598)"
           id="g26"><path
             id="path28"
             style="fill:#88868a;fill-opacity:1;fill-rule:nonzero;stroke:none"
             d="M 0,0 C 0,0.489 -0.11,0.899 -0.326,1.236 -0.545,1.573 -0.91,1.815 -1.424,1.961 -1.584,2.006 -1.767,2.04 -1.969,2.062 -2.172,2.079 -2.436,2.09 -2.764,2.09 h -1.397 v -4.203 h 1.619 c 0.438,0 0.814,0.057 1.132,0.163 0.317,0.101 0.584,0.253 0.795,0.439 0.21,0.191 0.368,0.415 0.466,0.674 C -0.048,-0.584 0,-0.303 0,0 M 2.495,-8.754 C 2.495,-8.81 2.486,-8.855 2.467,-8.889 2.447,-8.928 2.405,-8.962 2.34,-8.99 2.278,-9.012 2.188,-9.035 2.07,-9.046 1.955,-9.057 1.801,-9.063 1.61,-9.063 1.441,-9.063 1.306,-9.057 1.2,-9.046 1.093,-9.035 1.009,-9.012 0.944,-8.984 0.879,-8.956 0.832,-8.911 0.795,-8.861 0.761,-8.81 0.73,-8.748 0.705,-8.67 l -1.146,2.939 c -0.135,0.331 -0.275,0.641 -0.419,0.921 -0.146,0.276 -0.317,0.517 -0.517,0.72 -0.199,0.202 -0.432,0.359 -0.702,0.472 -0.27,0.112 -0.595,0.168 -0.972,0.168 h -1.11 v -5.304 c 0,-0.056 -0.014,-0.101 -0.042,-0.135 -0.028,-0.039 -0.073,-0.073 -0.135,-0.095 -0.061,-0.023 -0.146,-0.04 -0.25,-0.056 -0.106,-0.017 -0.238,-0.023 -0.399,-0.023 -0.163,0 -0.295,0.006 -0.401,0.023 -0.104,0.016 -0.191,0.033 -0.256,0.056 -0.062,0.022 -0.11,0.056 -0.135,0.095 -0.025,0.034 -0.036,0.079 -0.036,0.135 V 2.781 c 0,0.253 0.064,0.427 0.196,0.528 0.132,0.096 0.27,0.146 0.419,0.146 h 2.649 c 0.315,0 0.576,-0.005 0.784,-0.022 C -1.556,3.416 -1.371,3.399 -1.202,3.377 -0.722,3.298 -0.295,3.163 0.073,2.984 0.441,2.804 0.753,2.579 1.003,2.298 1.253,2.023 1.441,1.708 1.565,1.354 1.691,0.995 1.753,0.601 1.753,0.174 1.753,-0.247 1.697,-0.618 1.584,-0.95 1.472,-1.281 1.312,-1.573 1.098,-1.826 0.888,-2.079 0.632,-2.298 0.337,-2.489 0.042,-2.674 -0.287,-2.832 -0.655,-2.961 c 0.206,-0.09 0.394,-0.202 0.559,-0.337 0.166,-0.141 0.324,-0.304 0.467,-0.5 0.146,-0.191 0.281,-0.41 0.41,-0.663 0.129,-0.247 0.256,-0.534 0.385,-0.849 l 1.118,-2.742 c 0.09,-0.23 0.146,-0.393 0.174,-0.488 0.025,-0.09 0.037,-0.163 0.037,-0.214" /></g><g
           transform="translate(16.4109,22.3751)"
           id="g30"><path
             id="path32"
             style="fill:#88868a;fill-opacity:1;fill-rule:nonzero;stroke:none"
             d="M 0,0 C 0.02,0.837 -0.166,1.489 -0.556,1.967 -0.947,2.438 -1.528,2.68 -2.295,2.68 -2.689,2.68 -3.034,2.601 -3.332,2.455 -3.63,2.309 -3.88,2.113 -4.079,1.871 -4.279,1.624 -4.433,1.343 -4.543,1.017 -4.655,0.691 -4.714,0.354 -4.728,0 Z M 1.599,-0.472 C 1.599,-0.719 1.537,-0.899 1.41,-1.006 1.287,-1.113 1.141,-1.163 0.98,-1.163 h -5.708 c 0,-0.483 0.048,-0.916 0.146,-1.304 0.095,-0.382 0.258,-0.713 0.483,-0.988 0.225,-0.276 0.52,-0.489 0.88,-0.635 0.362,-0.152 0.803,-0.225 1.326,-0.225 0.412,0 0.78,0.034 1.104,0.101 0.323,0.067 0.601,0.146 0.837,0.225 0.236,0.084 0.43,0.163 0.581,0.23 0.152,0.068 0.267,0.101 0.343,0.101 0.045,0 0.087,-0.011 0.121,-0.033 C 1.129,-3.714 1.157,-3.748 1.177,-3.793 1.194,-3.838 1.211,-3.899 1.219,-3.984 1.228,-4.062 1.233,-4.158 1.233,-4.276 1.233,-4.36 1.23,-4.433 1.225,-4.495 1.216,-4.551 1.211,-4.607 1.2,-4.658 1.191,-4.703 1.174,-4.748 1.152,-4.787 1.129,-4.826 1.101,-4.86 1.065,-4.899 1.031,-4.933 0.924,-4.989 0.753,-5.068 0.579,-5.152 0.354,-5.231 0.079,-5.304 -0.199,-5.383 -0.517,-5.45 -0.879,-5.512 c -0.363,-0.062 -0.75,-0.095 -1.161,-0.095 -0.713,0 -1.337,0.101 -1.873,0.303 -0.537,0.197 -0.989,0.494 -1.355,0.882 -0.365,0.393 -0.64,0.882 -0.828,1.478 -0.186,0.59 -0.278,1.275 -0.278,2.056 0,0.748 0.095,1.416 0.289,2.012 0.191,0.59 0.469,1.095 0.832,1.511 0.362,0.416 0.8,0.731 1.314,0.955 0.514,0.219 1.09,0.332 1.725,0.332 0.68,0 1.259,-0.113 1.739,-0.332 C 0.003,3.377 0.396,3.079 0.705,2.714 1.011,2.343 1.239,1.91 1.382,1.41 1.528,0.916 1.599,0.382 1.599,-0.185 Z" /></g><g
           transform="translate(26.5021,23.291)"
           id="g34"><path
             id="path36"
             style="fill:#88868a;fill-opacity:1;fill-rule:nonzero;stroke:none"
             d="M 0,0 C -0.43,0.534 -0.848,0.938 -1.247,1.219 -1.649,1.495 -2.068,1.635 -2.506,1.635 -2.91,1.635 -3.253,1.54 -3.537,1.348 -3.818,1.157 -4.048,0.899 -4.225,0.584 -4.402,0.27 -4.529,-0.084 -4.61,-0.483 c -0.079,-0.399 -0.121,-0.804 -0.121,-1.214 0,-0.438 0.034,-0.86 0.101,-1.281 0.068,-0.416 0.186,-0.787 0.351,-1.112 0.169,-0.321 0.391,-0.585 0.666,-0.781 0.276,-0.191 0.624,-0.293 1.04,-0.293 0.213,0 0.415,0.029 0.612,0.09 0.197,0.057 0.396,0.152 0.601,0.287 0.205,0.135 0.422,0.309 0.646,0.522 0.225,0.22 0.464,0.484 0.714,0.798 z M 1.599,-6.096 C 1.599,-6.147 1.587,-6.192 1.565,-6.231 1.542,-6.27 1.503,-6.299 1.45,-6.321 1.393,-6.343 1.32,-6.366 1.23,-6.377 1.141,-6.388 1.034,-6.394 0.905,-6.394 c -0.135,0 -0.248,0.006 -0.338,0.017 -0.089,0.011 -0.162,0.034 -0.221,0.056 -0.057,0.022 -0.099,0.051 -0.124,0.09 -0.028,0.039 -0.039,0.084 -0.039,0.135 v 1.146 c -0.458,-0.494 -0.93,-0.882 -1.422,-1.157 -0.492,-0.276 -1.028,-0.416 -1.612,-0.416 -0.635,0 -1.18,0.123 -1.63,0.371 -0.449,0.247 -0.812,0.584 -1.093,1.005 -0.278,0.422 -0.483,0.916 -0.609,1.484 -0.13,0.567 -0.194,1.163 -0.194,1.792 0,0.747 0.081,1.422 0.241,2.017 0.161,0.601 0.399,1.113 0.714,1.54 0.312,0.421 0.702,0.747 1.169,0.977 0.466,0.225 1.003,0.343 1.612,0.343 0.509,0 0.972,-0.112 1.394,-0.332 C -0.829,2.45 -0.413,2.124 0,1.697 V 6.731 C 0,6.776 0.011,6.821 0.034,6.86 0.056,6.905 0.098,6.933 0.163,6.956 0.228,6.978 0.309,7.001 0.407,7.018 0.508,7.035 0.635,7.04 0.789,7.04 0.95,7.04 1.082,7.035 1.183,7.018 1.287,7.001 1.365,6.978 1.424,6.956 1.483,6.933 1.525,6.905 1.554,6.86 1.584,6.821 1.599,6.776 1.599,6.731 Z" /></g><g
           transform="translate(41.5685,23.291)"
           id="g38"><path
             id="path40"
             style="fill:#88868a;fill-opacity:1;fill-rule:nonzero;stroke:none"
             d="M 0,0 C -0.43,0.534 -0.848,0.938 -1.247,1.219 -1.649,1.495 -2.068,1.635 -2.506,1.635 -2.91,1.635 -3.253,1.54 -3.537,1.348 -3.818,1.157 -4.048,0.899 -4.225,0.584 -4.402,0.27 -4.529,-0.084 -4.61,-0.483 c -0.079,-0.399 -0.121,-0.804 -0.121,-1.214 0,-0.438 0.034,-0.86 0.101,-1.281 0.068,-0.416 0.186,-0.787 0.351,-1.112 0.169,-0.321 0.391,-0.585 0.666,-0.781 0.276,-0.191 0.624,-0.293 1.04,-0.293 0.213,0 0.415,0.029 0.612,0.09 0.197,0.057 0.396,0.152 0.601,0.287 0.205,0.135 0.422,0.309 0.646,0.522 0.225,0.22 0.464,0.484 0.714,0.798 z M 1.599,-6.096 C 1.599,-6.147 1.587,-6.192 1.565,-6.231 1.542,-6.27 1.503,-6.299 1.45,-6.321 1.393,-6.343 1.32,-6.366 1.23,-6.377 1.141,-6.388 1.034,-6.394 0.905,-6.394 c -0.135,0 -0.248,0.006 -0.338,0.017 -0.089,0.011 -0.162,0.034 -0.221,0.056 -0.057,0.022 -0.099,0.051 -0.124,0.09 -0.028,0.039 -0.039,0.084 -0.039,0.135 v 1.146 c -0.458,-0.494 -0.93,-0.882 -1.422,-1.157 -0.492,-0.276 -1.028,-0.416 -1.612,-0.416 -0.635,0 -1.18,0.123 -1.63,0.371 -0.449,0.247 -0.812,0.584 -1.093,1.005 -0.278,0.422 -0.483,0.916 -0.609,1.484 -0.13,0.567 -0.194,1.163 -0.194,1.792 0,0.747 0.081,1.422 0.241,2.017 0.161,0.601 0.399,1.113 0.714,1.54 0.312,0.421 0.702,0.747 1.169,0.977 0.466,0.225 1.003,0.343 1.612,0.343 0.509,0 0.972,-0.112 1.394,-0.332 C -0.829,2.45 -0.413,2.124 0,1.697 V 6.731 C 0,6.776 0.011,6.821 0.034,6.86 0.056,6.905 0.098,6.933 0.163,6.956 0.228,6.978 0.309,7.001 0.407,7.018 0.508,7.035 0.635,7.04 0.789,7.04 0.95,7.04 1.082,7.035 1.183,7.018 1.287,7.001 1.365,6.978 1.424,6.956 1.483,6.933 1.525,6.905 1.554,6.86 1.584,6.821 1.599,6.776 1.599,6.731 Z" /></g><g
           transform="translate(52.1569,22.3751)"
           id="g42"><path
             id="path44"
             style="fill:#88868a;fill-opacity:1;fill-rule:nonzero;stroke:none"
             d="M 0,0 C 0.02,0.837 -0.166,1.489 -0.556,1.967 -0.947,2.438 -1.528,2.68 -2.295,2.68 -2.689,2.68 -3.034,2.601 -3.332,2.455 -3.63,2.309 -3.88,2.113 -4.079,1.871 -4.279,1.624 -4.433,1.343 -4.543,1.017 -4.655,0.691 -4.714,0.354 -4.728,0 Z M 1.599,-0.472 C 1.599,-0.719 1.537,-0.899 1.41,-1.006 1.287,-1.113 1.141,-1.163 0.98,-1.163 h -5.708 c 0,-0.483 0.048,-0.916 0.146,-1.304 0.095,-0.382 0.258,-0.713 0.483,-0.988 0.225,-0.276 0.52,-0.489 0.88,-0.635 0.362,-0.152 0.803,-0.225 1.326,-0.225 0.412,0 0.78,0.034 1.104,0.101 0.323,0.067 0.601,0.146 0.837,0.225 0.236,0.084 0.43,0.163 0.581,0.23 0.152,0.068 0.267,0.101 0.343,0.101 0.045,0 0.087,-0.011 0.121,-0.033 C 1.129,-3.714 1.157,-3.748 1.177,-3.793 1.194,-3.838 1.211,-3.899 1.219,-3.984 1.228,-4.062 1.233,-4.158 1.233,-4.276 1.233,-4.36 1.23,-4.433 1.225,-4.495 1.216,-4.551 1.211,-4.607 1.2,-4.658 1.191,-4.703 1.174,-4.748 1.152,-4.787 1.129,-4.826 1.101,-4.86 1.065,-4.899 1.031,-4.933 0.924,-4.989 0.753,-5.068 0.579,-5.152 0.354,-5.231 0.079,-5.304 -0.199,-5.383 -0.517,-5.45 -0.879,-5.512 c -0.363,-0.062 -0.75,-0.095 -1.161,-0.095 -0.713,0 -1.337,0.101 -1.873,0.303 -0.537,0.197 -0.989,0.494 -1.355,0.882 -0.365,0.393 -0.64,0.882 -0.828,1.478 -0.186,0.59 -0.278,1.275 -0.278,2.056 0,0.748 0.095,1.416 0.289,2.012 0.191,0.59 0.469,1.095 0.832,1.511 0.362,0.416 0.8,0.731 1.314,0.955 0.514,0.219 1.09,0.332 1.725,0.332 0.68,0 1.259,-0.113 1.739,-0.332 C 0.003,3.377 0.396,3.079 0.705,2.714 1.011,2.343 1.239,1.91 1.382,1.41 1.528,0.916 1.599,0.382 1.599,-0.185 Z" /></g><g
           transform="translate(67.9931,17.6386)"
           id="g46"><path
             id="path48"
             style="fill:#88868a;fill-opacity:1;fill-rule:nonzero;stroke:none"
             d="m 0,0 c 0,-0.118 -0.006,-0.219 -0.02,-0.303 -0.011,-0.09 -0.033,-0.163 -0.067,-0.22 -0.031,-0.056 -0.068,-0.101 -0.11,-0.123 -0.042,-0.028 -0.09,-0.039 -0.14,-0.039 h -5.981 c -0.149,0 -0.287,0.05 -0.419,0.151 -0.132,0.096 -0.196,0.27 -0.196,0.523 v 11.113 c 0,0.253 0.064,0.428 0.196,0.529 0.132,0.095 0.27,0.146 0.419,0.146 h 5.913 c 0.051,0 0.099,-0.012 0.141,-0.04 0.042,-0.022 0.076,-0.067 0.101,-0.123 0.025,-0.056 0.045,-0.129 0.062,-0.219 0.017,-0.085 0.025,-0.191 0.025,-0.321 0,-0.118 -0.008,-0.219 -0.025,-0.303 -0.017,-0.084 -0.037,-0.157 -0.062,-0.214 -0.025,-0.05 -0.059,-0.095 -0.101,-0.118 C -0.306,10.411 -0.354,10.4 -0.405,10.4 H -5.279 V 6.49 h 4.181 C -1.048,6.49 -1,6.473 -0.958,6.445 -0.916,6.417 -0.882,6.377 -0.851,6.327 -0.823,6.276 -0.803,6.203 -0.789,6.113 -0.778,6.023 -0.77,5.916 -0.77,5.798 -0.77,5.68 -0.778,5.579 -0.789,5.495 -0.803,5.416 -0.823,5.349 -0.851,5.293 -0.882,5.242 -0.916,5.209 -0.958,5.186 -1,5.164 -1.048,5.152 -1.098,5.152 H -5.279 V 0.691 h 4.942 c 0.05,0 0.098,-0.011 0.14,-0.039 C -0.155,0.629 -0.118,0.59 -0.087,0.534 -0.053,0.478 -0.031,0.41 -0.02,0.32 -0.006,0.236 0,0.129 0,0" /></g><g
           transform="translate(83.5933,17.1947)"
           id="g50"><path
             id="path52"
             style="fill:#88868a;fill-opacity:1;fill-rule:nonzero;stroke:none"
             d="m 0,0 c 0,-0.051 -0.011,-0.096 -0.037,-0.129 -0.028,-0.04 -0.067,-0.068 -0.126,-0.096 -0.059,-0.022 -0.138,-0.045 -0.242,-0.056 -0.101,-0.011 -0.23,-0.017 -0.384,-0.017 -0.161,0 -0.293,0.006 -0.394,0.017 -0.104,0.011 -0.185,0.034 -0.247,0.056 -0.062,0.028 -0.104,0.056 -0.129,0.096 -0.025,0.033 -0.04,0.078 -0.04,0.129 v 5.265 c 0,0.371 -0.03,0.702 -0.095,1.005 -0.065,0.298 -0.169,0.562 -0.309,0.781 -0.141,0.214 -0.32,0.382 -0.539,0.5 -0.217,0.113 -0.475,0.175 -0.77,0.175 -0.365,0 -0.733,-0.146 -1.104,-0.427 C -4.784,7.018 -5.192,6.602 -5.633,6.057 V 0 c 0,-0.051 -0.014,-0.096 -0.039,-0.129 -0.025,-0.04 -0.07,-0.068 -0.129,-0.096 -0.062,-0.022 -0.144,-0.045 -0.247,-0.056 -0.102,-0.011 -0.231,-0.017 -0.385,-0.017 -0.146,0 -0.276,0.006 -0.38,0.017 -0.106,0.011 -0.191,0.034 -0.25,0.056 -0.061,0.028 -0.104,0.056 -0.126,0.096 -0.023,0.033 -0.034,0.078 -0.034,0.129 v 5.265 c 0,0.371 -0.036,0.702 -0.107,1.005 -0.07,0.298 -0.177,0.562 -0.317,0.781 -0.14,0.214 -0.317,0.382 -0.534,0.5 -0.216,0.113 -0.469,0.175 -0.767,0.175 -0.365,0 -0.733,-0.146 -1.107,-0.427 -0.37,-0.281 -0.775,-0.697 -1.213,-1.242 V 0 c 0,-0.051 -0.011,-0.096 -0.04,-0.129 -0.025,-0.04 -0.067,-0.068 -0.123,-0.096 -0.059,-0.022 -0.138,-0.045 -0.242,-0.056 -0.101,-0.011 -0.233,-0.017 -0.393,-0.017 -0.155,0 -0.284,0.006 -0.385,0.017 -0.104,0.011 -0.185,0.034 -0.247,0.056 -0.062,0.028 -0.101,0.056 -0.124,0.096 -0.025,0.033 -0.034,0.078 -0.034,0.129 v 8.67 c 0,0.05 0.009,0.089 0.029,0.129 0.019,0.034 0.056,0.067 0.115,0.095 0.059,0.028 0.132,0.045 0.222,0.057 0.09,0.011 0.208,0.016 0.356,0.016 0.141,0 0.259,-0.005 0.352,-0.016 0.092,-0.012 0.165,-0.029 0.216,-0.057 0.051,-0.028 0.087,-0.061 0.11,-0.095 0.022,-0.04 0.033,-0.079 0.033,-0.129 V 7.523 c 0.489,0.545 0.964,0.944 1.422,1.197 0.458,0.253 0.924,0.382 1.39,0.382 0.36,0 0.683,-0.045 0.97,-0.129 0.286,-0.079 0.536,-0.197 0.755,-0.348 0.219,-0.152 0.405,-0.332 0.559,-0.54 0.155,-0.208 0.281,-0.444 0.385,-0.696 0.29,0.314 0.565,0.578 0.823,0.797 0.262,0.22 0.512,0.394 0.753,0.529 0.239,0.134 0.475,0.236 0.703,0.292 0.227,0.062 0.458,0.095 0.688,0.095 0.559,0 1.028,-0.101 1.405,-0.298 0.379,-0.191 0.685,-0.455 0.921,-0.781 0.233,-0.331 0.402,-0.713 0.5,-1.151 C -0.048,6.433 0,5.967 0,5.478 Z" /></g><g
           transform="translate(93.0804,21.4818)"
           id="g54"><path
             id="path56"
             style="fill:#88868a;fill-opacity:1;fill-rule:nonzero;stroke:none"
             d="m 0,0 c 0,0.444 -0.034,0.871 -0.101,1.281 -0.068,0.416 -0.186,0.787 -0.348,1.107 -0.166,0.32 -0.388,0.579 -0.666,0.77 -0.278,0.191 -0.624,0.286 -1.037,0.286 -0.205,0 -0.41,-0.028 -0.61,-0.09 C -2.961,3.293 -3.166,3.197 -3.371,3.068 -3.579,2.933 -3.795,2.759 -4.023,2.545 -4.248,2.332 -4.487,2.068 -4.739,1.753 v -3.45 c 0.441,-0.534 0.856,-0.938 1.25,-1.225 0.393,-0.281 0.809,-0.421 1.242,-0.421 0.398,0 0.744,0.095 1.031,0.286 0.286,0.197 0.519,0.45 0.696,0.77 0.18,0.326 0.309,0.686 0.394,1.079 C -0.042,-0.809 0,-0.405 0,0 M 1.646,0.18 C 1.646,-0.579 1.565,-1.259 1.402,-1.86 1.236,-2.467 0.997,-2.978 0.68,-3.399 0.36,-3.815 -0.034,-4.141 -0.5,-4.371 c -0.469,-0.225 -1.006,-0.343 -1.61,-0.343 -0.255,0 -0.494,0.028 -0.713,0.079 -0.217,0.05 -0.43,0.134 -0.641,0.241 -0.208,0.107 -0.416,0.247 -0.621,0.416 -0.205,0.163 -0.424,0.36 -0.654,0.584 v -4.332 c 0,-0.05 -0.012,-0.095 -0.04,-0.135 -0.025,-0.039 -0.067,-0.073 -0.123,-0.095 -0.059,-0.028 -0.138,-0.045 -0.242,-0.062 -0.101,-0.011 -0.233,-0.017 -0.393,-0.017 -0.155,0 -0.284,0.006 -0.385,0.017 -0.104,0.017 -0.185,0.034 -0.247,0.062 -0.062,0.022 -0.101,0.056 -0.124,0.095 -0.025,0.04 -0.034,0.085 -0.034,0.135 V 4.383 c 0,0.056 0.009,0.101 0.028,0.134 0.02,0.04 0.057,0.068 0.116,0.096 0.059,0.022 0.132,0.039 0.222,0.05 0.089,0.012 0.199,0.017 0.325,0.017 0.135,0 0.248,-0.005 0.335,-0.017 0.084,-0.011 0.157,-0.028 0.216,-0.05 C -5.029,4.585 -4.987,4.557 -4.964,4.517 -4.942,4.484 -4.93,4.439 -4.93,4.383 V 3.214 c 0.261,0.27 0.517,0.506 0.758,0.702 0.245,0.202 0.492,0.365 0.739,0.5 0.247,0.13 0.5,0.231 0.761,0.298 0.259,0.067 0.534,0.101 0.823,0.101 0.63,0 1.166,-0.123 1.607,-0.365 C 0.202,4.203 0.562,3.871 0.843,3.444 1.121,3.023 1.326,2.528 1.455,1.967 1.582,1.405 1.646,0.809 1.646,0.18" /></g><g
           transform="translate(102.4102,25.2912)"
           id="g58"><path
             id="path60"
             style="fill:#88868a;fill-opacity:1;fill-rule:nonzero;stroke:none"
             d="m 0,0 c 0,-0.14 -0.003,-0.258 -0.011,-0.354 -0.006,-0.095 -0.017,-0.174 -0.037,-0.225 -0.019,-0.056 -0.045,-0.095 -0.073,-0.129 -0.028,-0.028 -0.07,-0.039 -0.121,-0.039 -0.05,0 -0.112,0.011 -0.188,0.039 -0.073,0.034 -0.157,0.062 -0.25,0.09 -0.093,0.028 -0.197,0.056 -0.312,0.079 -0.115,0.028 -0.241,0.039 -0.376,0.039 -0.16,0 -0.318,-0.028 -0.472,-0.096 C -1.995,-0.657 -2.158,-0.764 -2.326,-0.91 -2.497,-1.062 -2.674,-1.259 -2.86,-1.5 -3.048,-1.742 -3.253,-2.045 -3.478,-2.394 v -5.702 c 0,-0.051 -0.011,-0.096 -0.039,-0.13 -0.026,-0.039 -0.068,-0.067 -0.124,-0.095 -0.059,-0.023 -0.138,-0.045 -0.241,-0.056 -0.102,-0.012 -0.234,-0.017 -0.394,-0.017 -0.154,0 -0.284,0.005 -0.385,0.017 -0.104,0.011 -0.185,0.033 -0.247,0.056 -0.062,0.028 -0.101,0.056 -0.124,0.095 -0.025,0.034 -0.033,0.079 -0.033,0.13 v 8.669 c 0,0.051 0.008,0.09 0.028,0.129 0.02,0.034 0.056,0.068 0.115,0.096 0.059,0.028 0.132,0.045 0.222,0.056 0.09,0.011 0.208,0.017 0.357,0.017 0.14,0 0.258,-0.006 0.351,-0.017 0.093,-0.011 0.166,-0.028 0.216,-0.056 0.051,-0.028 0.087,-0.062 0.11,-0.096 0.022,-0.039 0.034,-0.078 0.034,-0.129 v -1.264 c 0.238,0.348 0.46,0.629 0.671,0.848 0.208,0.219 0.405,0.388 0.59,0.517 0.188,0.124 0.371,0.208 0.556,0.259 0.183,0.045 0.365,0.073 0.554,0.073 C -1.18,1.006 -1.084,1 -0.978,0.989 -0.871,0.978 -0.761,0.961 -0.646,0.938 -0.531,0.91 -0.427,0.882 -0.331,0.848 -0.239,0.82 -0.174,0.787 -0.135,0.753 -0.096,0.719 -0.07,0.691 -0.059,0.663 -0.045,0.635 -0.034,0.596 -0.025,0.551 -0.014,0.506 -0.008,0.438 -0.006,0.354 -0.003,0.27 0,0.152 0,0" /></g><g
           transform="translate(110.0179,22.3751)"
           id="g62"><path
             id="path64"
             style="fill:#88868a;fill-opacity:1;fill-rule:nonzero;stroke:none"
             d="M 0,0 C 0.02,0.837 -0.166,1.489 -0.556,1.967 -0.947,2.438 -1.528,2.68 -2.295,2.68 -2.689,2.68 -3.034,2.601 -3.332,2.455 -3.63,2.309 -3.88,2.113 -4.079,1.871 -4.279,1.624 -4.433,1.343 -4.543,1.017 -4.655,0.691 -4.714,0.354 -4.728,0 Z M 1.599,-0.472 C 1.599,-0.719 1.537,-0.899 1.41,-1.006 1.287,-1.113 1.141,-1.163 0.98,-1.163 h -5.708 c 0,-0.483 0.048,-0.916 0.146,-1.304 0.095,-0.382 0.258,-0.713 0.483,-0.988 0.225,-0.276 0.52,-0.489 0.88,-0.635 0.362,-0.152 0.803,-0.225 1.326,-0.225 0.412,0 0.78,0.034 1.104,0.101 0.323,0.067 0.601,0.146 0.837,0.225 0.236,0.084 0.43,0.163 0.581,0.23 0.152,0.068 0.267,0.101 0.343,0.101 0.045,0 0.087,-0.011 0.121,-0.033 C 1.129,-3.714 1.157,-3.748 1.177,-3.793 1.194,-3.838 1.211,-3.899 1.219,-3.984 1.228,-4.062 1.233,-4.158 1.233,-4.276 1.233,-4.36 1.23,-4.433 1.225,-4.495 1.216,-4.551 1.211,-4.607 1.2,-4.658 1.191,-4.703 1.174,-4.748 1.152,-4.787 1.129,-4.826 1.101,-4.86 1.065,-4.899 1.031,-4.933 0.924,-4.989 0.753,-5.068 0.579,-5.152 0.354,-5.231 0.079,-5.304 -0.199,-5.383 -0.517,-5.45 -0.879,-5.512 c -0.363,-0.062 -0.75,-0.095 -1.161,-0.095 -0.713,0 -1.337,0.101 -1.873,0.303 -0.537,0.197 -0.989,0.494 -1.355,0.882 -0.365,0.393 -0.64,0.882 -0.828,1.478 -0.186,0.59 -0.278,1.275 -0.278,2.056 0,0.748 0.095,1.416 0.289,2.012 0.191,0.59 0.469,1.095 0.832,1.511 0.362,0.416 0.8,0.731 1.314,0.955 0.514,0.219 1.09,0.332 1.725,0.332 0.68,0 1.259,-0.113 1.739,-0.332 C 0.003,3.377 0.396,3.079 0.705,2.714 1.011,2.343 1.239,1.91 1.382,1.41 1.528,0.916 1.599,0.382 1.599,-0.185 Z" /></g><g
           transform="translate(119.7129,19.5546)"
           id="g66"><path
             id="path68"
             style="fill:#88868a;fill-opacity:1;fill-rule:nonzero;stroke:none"
             d="m 0,0 c 0,-0.444 -0.084,-0.837 -0.247,-1.186 -0.163,-0.348 -0.396,-0.64 -0.697,-0.876 -0.303,-0.236 -0.663,-0.416 -1.079,-0.539 -0.418,-0.124 -0.876,-0.186 -1.379,-0.186 -0.306,0 -0.601,0.028 -0.879,0.073 -0.281,0.051 -0.531,0.113 -0.753,0.186 -0.222,0.073 -0.408,0.151 -0.562,0.23 -0.155,0.079 -0.267,0.152 -0.337,0.219 -0.071,0.062 -0.124,0.152 -0.155,0.27 -0.034,0.112 -0.048,0.269 -0.048,0.472 0,0.118 0.006,0.224 0.02,0.303 0.011,0.084 0.028,0.152 0.048,0.202 0.02,0.057 0.045,0.09 0.081,0.113 0.034,0.022 0.076,0.034 0.121,0.034 0.07,0 0.174,-0.045 0.312,-0.13 0.138,-0.084 0.309,-0.18 0.511,-0.286 0.203,-0.101 0.441,-0.197 0.717,-0.281 0.275,-0.09 0.595,-0.129 0.955,-0.129 0.269,0 0.511,0.028 0.73,0.084 0.219,0.056 0.408,0.146 0.568,0.258 0.163,0.113 0.286,0.253 0.371,0.427 0.087,0.175 0.132,0.377 0.132,0.618 0,0.242 -0.065,0.45 -0.189,0.613 -0.126,0.168 -0.292,0.314 -0.497,0.444 -0.205,0.129 -0.435,0.241 -0.694,0.342 -0.255,0.102 -0.52,0.203 -0.792,0.315 -0.275,0.107 -0.539,0.23 -0.801,0.371 -0.258,0.135 -0.491,0.303 -0.696,0.506 -0.208,0.196 -0.371,0.432 -0.498,0.708 -0.126,0.28 -0.188,0.606 -0.188,0.994 0,0.343 0.068,0.669 0.197,0.978 0.132,0.309 0.328,0.584 0.593,0.82 0.264,0.23 0.592,0.421 0.988,0.562 0.394,0.14 0.854,0.213 1.383,0.213 0.23,0 0.46,-0.022 0.691,-0.061 C -1.84,6.647 -1.632,6.596 -1.447,6.54 -1.259,6.478 -1.101,6.417 -0.969,6.349 -0.837,6.282 -0.739,6.225 -0.671,6.175 -0.604,6.119 -0.559,6.074 -0.537,6.04 -0.514,6.001 -0.497,5.956 -0.489,5.905 -0.478,5.86 -0.469,5.798 -0.458,5.731 -0.449,5.658 -0.444,5.574 -0.444,5.467 -0.444,5.36 -0.449,5.265 -0.458,5.186 -0.469,5.107 -0.483,5.04 -0.506,4.989 -0.531,4.939 -0.556,4.899 -0.59,4.877 -0.621,4.855 -0.657,4.843 -0.694,4.843 c -0.059,0 -0.143,0.034 -0.25,0.107 -0.11,0.067 -0.253,0.146 -0.424,0.225 -0.174,0.078 -0.379,0.157 -0.613,0.225 -0.233,0.073 -0.502,0.106 -0.803,0.106 -0.27,0 -0.509,-0.028 -0.714,-0.09 C -3.703,5.355 -3.871,5.27 -4.003,5.158 -4.135,5.046 -4.234,4.911 -4.301,4.759 -4.369,4.602 -4.402,4.433 -4.402,4.253 c 0,-0.247 0.064,-0.46 0.191,-0.629 0.129,-0.169 0.295,-0.32 0.503,-0.449 C -3.503,3.051 -3.27,2.933 -3.006,2.832 -2.742,2.725 -2.475,2.624 -2.203,2.512 -1.93,2.405 -1.66,2.281 -1.393,2.146 -1.127,2.011 -0.891,1.849 -0.685,1.658 -0.48,1.461 -0.315,1.23 -0.188,0.961 -0.065,0.691 0,0.371 0,0" /></g><g
           transform="translate(127.1886,21.1446)"
           id="g70"><path
             id="path72"
             style="fill:#88868a;fill-opacity:1;fill-rule:nonzero;stroke:none"
             d="m 0,0 h -1.36 c -0.435,0 -0.814,-0.039 -1.135,-0.112 -0.323,-0.073 -0.587,-0.186 -0.8,-0.326 -0.211,-0.146 -0.368,-0.321 -0.467,-0.523 -0.101,-0.202 -0.149,-0.432 -0.149,-0.697 0,-0.449 0.144,-0.809 0.427,-1.073 0.287,-0.269 0.686,-0.399 1.2,-0.399 0.419,0 0.803,0.102 1.16,0.315 0.357,0.214 0.731,0.539 1.124,0.972 z M 1.579,-3.961 C 1.579,-4.04 1.554,-4.096 1.5,-4.135 1.45,-4.175 1.379,-4.203 1.289,-4.22 1.2,-4.242 1.068,-4.248 0.896,-4.248 c -0.168,0 -0.3,0.006 -0.402,0.028 -0.098,0.017 -0.171,0.045 -0.216,0.085 -0.045,0.039 -0.067,0.095 -0.067,0.174 v 0.865 C -0.169,-3.5 -0.59,-3.815 -1.056,-4.04 -1.52,-4.265 -2.014,-4.377 -2.534,-4.377 c -0.455,0 -0.868,0.062 -1.239,0.18 -0.368,0.118 -0.683,0.292 -0.941,0.517 -0.261,0.225 -0.464,0.5 -0.607,0.826 -0.146,0.331 -0.219,0.702 -0.219,1.118 0,0.489 0.101,0.91 0.301,1.27 0.196,0.359 0.483,0.663 0.856,0.899 0.371,0.236 0.829,0.415 1.369,0.533 0.539,0.118 1.146,0.18 1.82,0.18 L 0,1.146 V 1.82 c 0,0.332 -0.037,0.63 -0.107,0.883 -0.07,0.258 -0.185,0.472 -0.342,0.64 -0.158,0.174 -0.36,0.298 -0.61,0.388 C -1.312,3.815 -1.618,3.86 -1.986,3.86 -2.377,3.86 -2.728,3.815 -3.04,3.72 -3.352,3.63 -3.624,3.523 -3.857,3.411 -4.093,3.298 -4.29,3.197 -4.444,3.102 -4.604,3.012 -4.72,2.967 -4.798,2.967 c -0.051,0 -0.096,0.011 -0.135,0.033 -0.037,0.028 -0.07,0.068 -0.101,0.118 -0.028,0.051 -0.048,0.118 -0.062,0.197 -0.014,0.079 -0.02,0.169 -0.02,0.264 0,0.163 0.011,0.287 0.034,0.382 0.022,0.096 0.079,0.18 0.166,0.264 0.084,0.085 0.236,0.18 0.446,0.292 0.211,0.113 0.455,0.22 0.731,0.309 0.278,0.096 0.578,0.175 0.907,0.231 0.326,0.062 0.658,0.095 0.992,0.095 0.624,0 1.152,-0.073 1.59,-0.213 C 0.185,4.798 0.539,4.59 0.809,4.315 1.079,4.045 1.273,3.708 1.396,3.304 1.517,2.899 1.579,2.427 1.579,1.888 Z" /></g><g
           transform="translate(136.9903,25.2912)"
           id="g74"><path
             id="path76"
             style="fill:#88868a;fill-opacity:1;fill-rule:nonzero;stroke:none"
             d="m 0,0 c 0,-0.14 -0.003,-0.258 -0.011,-0.354 -0.006,-0.095 -0.017,-0.174 -0.037,-0.225 -0.019,-0.056 -0.045,-0.095 -0.073,-0.129 -0.028,-0.028 -0.07,-0.039 -0.121,-0.039 -0.05,0 -0.112,0.011 -0.188,0.039 -0.073,0.034 -0.157,0.062 -0.25,0.09 -0.093,0.028 -0.197,0.056 -0.312,0.079 -0.115,0.028 -0.241,0.039 -0.376,0.039 -0.16,0 -0.318,-0.028 -0.472,-0.096 C -1.995,-0.657 -2.158,-0.764 -2.326,-0.91 -2.497,-1.062 -2.674,-1.259 -2.86,-1.5 -3.048,-1.742 -3.253,-2.045 -3.478,-2.394 v -5.702 c 0,-0.051 -0.011,-0.096 -0.039,-0.13 -0.026,-0.039 -0.068,-0.067 -0.124,-0.095 -0.059,-0.023 -0.138,-0.045 -0.242,-0.056 -0.101,-0.012 -0.233,-0.017 -0.393,-0.017 -0.154,0 -0.284,0.005 -0.385,0.017 -0.104,0.011 -0.185,0.033 -0.247,0.056 -0.062,0.028 -0.101,0.056 -0.124,0.095 -0.025,0.034 -0.033,0.079 -0.033,0.13 v 8.669 c 0,0.051 0.008,0.09 0.028,0.129 0.02,0.034 0.056,0.068 0.115,0.096 0.059,0.028 0.132,0.045 0.222,0.056 0.09,0.011 0.208,0.017 0.357,0.017 0.14,0 0.258,-0.006 0.351,-0.017 0.093,-0.011 0.166,-0.028 0.216,-0.056 0.051,-0.028 0.087,-0.062 0.11,-0.096 0.022,-0.039 0.034,-0.078 0.034,-0.129 v -1.264 c 0.238,0.348 0.46,0.629 0.671,0.848 0.208,0.219 0.405,0.388 0.59,0.517 0.188,0.124 0.371,0.208 0.556,0.259 0.183,0.045 0.365,0.073 0.554,0.073 C -1.18,1.006 -1.084,1 -0.978,0.989 -0.871,0.978 -0.761,0.961 -0.646,0.938 -0.531,0.91 -0.427,0.882 -0.331,0.848 -0.239,0.82 -0.174,0.787 -0.135,0.753 -0.096,0.719 -0.07,0.691 -0.059,0.663 -0.045,0.635 -0.034,0.596 -0.025,0.551 -0.014,0.506 -0.008,0.438 -0.006,0.354 -0.003,0.27 0,0.152 0,0" /></g><g
           transform="translate(140.6312,17.1947)"
           id="g78"><path
             id="path80"
             style="fill:#88868a;fill-opacity:1;fill-rule:nonzero;stroke:none"
             d="m 0,0 c 0,-0.051 -0.011,-0.096 -0.039,-0.129 -0.026,-0.04 -0.068,-0.068 -0.124,-0.096 -0.059,-0.022 -0.138,-0.045 -0.242,-0.056 -0.101,-0.011 -0.233,-0.017 -0.393,-0.017 -0.154,0 -0.284,0.006 -0.385,0.017 -0.104,0.011 -0.185,0.034 -0.247,0.056 -0.062,0.028 -0.101,0.056 -0.124,0.096 -0.025,0.033 -0.033,0.078 -0.033,0.129 v 8.67 c 0,0.045 0.008,0.084 0.033,0.123 0.023,0.04 0.062,0.068 0.124,0.096 0.062,0.028 0.143,0.045 0.247,0.056 0.101,0.017 0.231,0.022 0.385,0.022 0.16,0 0.292,-0.005 0.393,-0.022 C -0.301,8.934 -0.222,8.917 -0.163,8.889 -0.107,8.861 -0.065,8.833 -0.039,8.793 -0.011,8.754 0,8.715 0,8.67 Z m 0.183,11.597 c 0,-0.377 -0.071,-0.629 -0.211,-0.764 -0.141,-0.135 -0.402,-0.202 -0.781,-0.202 -0.371,0 -0.627,0.067 -0.764,0.196 -0.141,0.135 -0.208,0.382 -0.208,0.747 0,0.377 0.07,0.63 0.211,0.765 0.143,0.134 0.401,0.202 0.781,0.202 0.373,0 0.626,-0.068 0.767,-0.197 0.137,-0.135 0.205,-0.382 0.205,-0.747" /></g><g
           transform="translate(150.2279,21.5211)"
           id="g82"><path
             id="path84"
             style="fill:#88868a;fill-opacity:1;fill-rule:nonzero;stroke:none"
             d="m 0,0 c 0,0.466 -0.045,0.91 -0.132,1.326 -0.087,0.416 -0.23,0.781 -0.433,1.096 -0.199,0.314 -0.472,0.567 -0.814,0.747 -0.346,0.185 -0.773,0.275 -1.284,0.275 -0.472,0 -0.88,-0.084 -1.22,-0.247 C -4.222,3.028 -4.503,2.792 -4.722,2.489 -4.944,2.18 -5.107,1.82 -5.214,1.405 -5.321,0.983 -5.374,0.528 -5.374,0.034 c 0,-0.472 0.042,-0.922 0.129,-1.338 0.09,-0.415 0.236,-0.781 0.438,-1.09 0.205,-0.314 0.478,-0.561 0.821,-0.741 0.345,-0.186 0.772,-0.276 1.283,-0.276 0.467,0 0.871,0.085 1.214,0.248 0.346,0.168 0.627,0.404 0.846,0.702 0.222,0.303 0.382,0.663 0.486,1.079 C -0.053,-0.961 0,-0.506 0,0 m 1.646,0.101 c 0,-0.702 -0.092,-1.354 -0.278,-1.95 -0.188,-0.59 -0.466,-1.106 -0.834,-1.533 -0.368,-0.433 -0.832,-0.765 -1.388,-1.006 -0.553,-0.242 -1.197,-0.365 -1.93,-0.365 -0.714,0 -1.334,0.106 -1.863,0.32 -0.531,0.213 -0.972,0.522 -1.326,0.927 -0.351,0.404 -0.615,0.893 -0.789,1.472 -0.174,0.579 -0.259,1.231 -0.259,1.967 0,0.702 0.09,1.354 0.273,1.949 0.183,0.59 0.461,1.102 0.829,1.534 0.368,0.433 0.828,0.764 1.382,1 0.553,0.242 1.197,0.36 1.936,0.36 0.713,0 1.334,-0.107 1.865,-0.32 C -0.208,4.242 0.233,3.939 0.587,3.534 0.941,3.13 1.205,2.635 1.382,2.056 1.559,1.478 1.646,0.826 1.646,0.101" /></g><g
           transform="translate(159.892,19.5546)"
           id="g86"><path
             id="path88"
             style="fill:#88868a;fill-opacity:1;fill-rule:nonzero;stroke:none"
             d="m 0,0 c 0,-0.444 -0.084,-0.837 -0.247,-1.186 -0.163,-0.348 -0.396,-0.64 -0.697,-0.876 -0.303,-0.236 -0.663,-0.416 -1.079,-0.539 -0.418,-0.124 -0.876,-0.186 -1.379,-0.186 -0.306,0 -0.601,0.028 -0.879,0.073 -0.281,0.051 -0.531,0.113 -0.753,0.186 -0.222,0.073 -0.408,0.151 -0.562,0.23 -0.155,0.079 -0.267,0.152 -0.337,0.219 -0.071,0.062 -0.124,0.152 -0.155,0.27 -0.034,0.112 -0.048,0.269 -0.048,0.472 0,0.118 0.006,0.224 0.02,0.303 0.011,0.084 0.028,0.152 0.048,0.202 0.02,0.057 0.045,0.09 0.081,0.113 0.034,0.022 0.076,0.034 0.121,0.034 0.07,0 0.174,-0.045 0.312,-0.13 0.138,-0.084 0.309,-0.18 0.511,-0.286 0.203,-0.101 0.441,-0.197 0.717,-0.281 0.275,-0.09 0.595,-0.129 0.955,-0.129 0.269,0 0.511,0.028 0.73,0.084 0.219,0.056 0.408,0.146 0.568,0.258 0.163,0.113 0.286,0.253 0.371,0.427 0.087,0.175 0.132,0.377 0.132,0.618 0,0.242 -0.065,0.45 -0.189,0.613 -0.126,0.168 -0.292,0.314 -0.497,0.444 -0.205,0.129 -0.435,0.241 -0.694,0.342 -0.255,0.102 -0.52,0.203 -0.792,0.315 -0.275,0.107 -0.539,0.23 -0.801,0.371 -0.258,0.135 -0.491,0.303 -0.696,0.506 -0.208,0.196 -0.371,0.432 -0.498,0.708 -0.126,0.28 -0.188,0.606 -0.188,0.994 0,0.343 0.068,0.669 0.197,0.978 0.132,0.309 0.328,0.584 0.593,0.82 0.264,0.23 0.592,0.421 0.988,0.562 0.394,0.14 0.854,0.213 1.383,0.213 0.23,0 0.46,-0.022 0.691,-0.061 C -1.84,6.647 -1.632,6.596 -1.447,6.54 -1.259,6.478 -1.101,6.417 -0.969,6.349 -0.837,6.282 -0.739,6.225 -0.671,6.175 -0.604,6.119 -0.559,6.074 -0.537,6.04 -0.514,6.001 -0.497,5.956 -0.489,5.905 -0.478,5.86 -0.469,5.798 -0.458,5.731 -0.449,5.658 -0.444,5.574 -0.444,5.467 -0.444,5.36 -0.449,5.265 -0.458,5.186 -0.469,5.107 -0.483,5.04 -0.506,4.989 -0.531,4.939 -0.556,4.899 -0.59,4.877 -0.621,4.855 -0.657,4.843 -0.694,4.843 c -0.059,0 -0.143,0.034 -0.25,0.107 -0.109,0.067 -0.253,0.146 -0.424,0.225 -0.174,0.078 -0.379,0.157 -0.613,0.225 -0.233,0.073 -0.502,0.106 -0.803,0.106 -0.27,0 -0.509,-0.028 -0.714,-0.09 C -3.703,5.355 -3.871,5.27 -4.003,5.158 -4.135,5.046 -4.234,4.911 -4.301,4.759 -4.368,4.602 -4.402,4.433 -4.402,4.253 c 0,-0.247 0.064,-0.46 0.191,-0.629 0.129,-0.169 0.295,-0.32 0.503,-0.449 C -3.503,3.051 -3.27,2.933 -3.006,2.832 -2.742,2.725 -2.475,2.624 -2.203,2.512 -1.93,2.405 -1.66,2.281 -1.393,2.146 -1.127,2.011 -0.891,1.849 -0.685,1.658 -0.48,1.461 -0.315,1.23 -0.188,0.961 -0.065,0.691 0,0.371 0,0" /></g><g
           transform="translate(172.7025,23.291)"
           id="g90"><path
             id="path92"
             style="fill:#88868a;fill-opacity:1;fill-rule:nonzero;stroke:none"
             d="M 0,0 C -0.43,0.534 -0.848,0.938 -1.247,1.219 -1.649,1.495 -2.068,1.635 -2.506,1.635 -2.91,1.635 -3.253,1.54 -3.537,1.348 -3.818,1.157 -4.048,0.899 -4.225,0.584 -4.402,0.27 -4.529,-0.084 -4.61,-0.483 c -0.079,-0.399 -0.121,-0.804 -0.121,-1.214 0,-0.438 0.034,-0.86 0.101,-1.281 0.068,-0.416 0.186,-0.787 0.351,-1.112 0.169,-0.321 0.391,-0.585 0.666,-0.781 0.276,-0.191 0.624,-0.293 1.04,-0.293 0.213,0 0.415,0.029 0.612,0.09 0.197,0.057 0.396,0.152 0.601,0.287 0.205,0.135 0.422,0.309 0.646,0.522 0.225,0.22 0.464,0.484 0.714,0.798 z M 1.599,-6.096 C 1.599,-6.147 1.587,-6.192 1.565,-6.231 1.542,-6.27 1.503,-6.299 1.45,-6.321 1.393,-6.343 1.32,-6.366 1.23,-6.377 1.141,-6.388 1.034,-6.394 0.905,-6.394 c -0.135,0 -0.248,0.006 -0.338,0.017 -0.089,0.011 -0.162,0.034 -0.221,0.056 -0.057,0.022 -0.099,0.051 -0.124,0.09 -0.028,0.039 -0.039,0.084 -0.039,0.135 v 1.146 c -0.458,-0.494 -0.93,-0.882 -1.422,-1.157 -0.492,-0.276 -1.028,-0.416 -1.612,-0.416 -0.635,0 -1.18,0.123 -1.63,0.371 -0.449,0.247 -0.812,0.584 -1.093,1.005 -0.278,0.422 -0.483,0.916 -0.609,1.484 -0.13,0.567 -0.194,1.163 -0.194,1.792 0,0.747 0.081,1.422 0.241,2.017 0.161,0.601 0.399,1.113 0.714,1.54 0.312,0.421 0.702,0.747 1.169,0.977 0.466,0.225 1.003,0.343 1.612,0.343 0.509,0 0.972,-0.112 1.394,-0.332 C -0.829,2.45 -0.413,2.124 0,1.697 V 6.731 C 0,6.776 0.011,6.821 0.034,6.86 0.056,6.905 0.098,6.933 0.163,6.956 0.228,6.978 0.309,7.001 0.407,7.018 0.508,7.035 0.635,7.04 0.789,7.04 0.95,7.04 1.082,7.035 1.183,7.018 1.287,7.001 1.365,6.978 1.424,6.956 1.483,6.933 1.525,6.905 1.554,6.86 1.584,6.821 1.599,6.776 1.599,6.731 Z" /></g><g
           transform="translate(183.2825,22.3751)"
           id="g94"><path
             id="path96"
             style="fill:#88868a;fill-opacity:1;fill-rule:nonzero;stroke:none"
             d="M 0,0 C 0.02,0.837 -0.166,1.489 -0.556,1.967 -0.947,2.438 -1.528,2.68 -2.295,2.68 -2.689,2.68 -3.034,2.601 -3.332,2.455 -3.63,2.309 -3.88,2.113 -4.079,1.871 -4.279,1.624 -4.433,1.343 -4.543,1.017 -4.655,0.691 -4.714,0.354 -4.728,0 Z M 1.599,-0.472 C 1.599,-0.719 1.537,-0.899 1.41,-1.006 1.287,-1.113 1.141,-1.163 0.98,-1.163 h -5.708 c 0,-0.483 0.048,-0.916 0.146,-1.304 0.095,-0.382 0.258,-0.713 0.483,-0.988 0.225,-0.276 0.52,-0.489 0.88,-0.635 0.362,-0.152 0.803,-0.225 1.326,-0.225 0.412,0 0.78,0.034 1.104,0.101 0.323,0.067 0.601,0.146 0.837,0.225 0.236,0.084 0.43,0.163 0.581,0.23 0.152,0.068 0.267,0.101 0.343,0.101 0.045,0 0.087,-0.011 0.121,-0.033 C 1.129,-3.714 1.157,-3.748 1.177,-3.793 1.194,-3.838 1.211,-3.899 1.219,-3.984 1.228,-4.062 1.233,-4.158 1.233,-4.276 1.233,-4.36 1.23,-4.433 1.225,-4.495 1.216,-4.551 1.211,-4.607 1.2,-4.658 1.191,-4.703 1.174,-4.748 1.152,-4.787 1.129,-4.826 1.101,-4.86 1.065,-4.899 1.031,-4.933 0.924,-4.989 0.753,-5.068 0.579,-5.152 0.354,-5.231 0.079,-5.304 -0.199,-5.383 -0.517,-5.45 -0.879,-5.512 c -0.363,-0.062 -0.75,-0.095 -1.161,-0.095 -0.713,0 -1.337,0.101 -1.873,0.303 -0.537,0.197 -0.989,0.494 -1.355,0.882 -0.365,0.393 -0.64,0.882 -0.828,1.478 -0.186,0.59 -0.278,1.275 -0.278,2.056 0,0.748 0.095,1.416 0.289,2.012 0.191,0.59 0.469,1.095 0.832,1.511 0.362,0.416 0.8,0.731 1.314,0.955 0.514,0.219 1.09,0.332 1.725,0.332 0.68,0 1.259,-0.113 1.739,-0.332 C 0.003,3.377 0.396,3.079 0.705,2.714 1.011,2.343 1.239,1.91 1.382,1.41 1.528,0.916 1.599,0.382 1.599,-0.185 Z" /></g><g
           transform="translate(189.1343,17.1947)"
           id="g98"><path
             id="path100"
             style="fill:#88868a;fill-opacity:1;fill-rule:nonzero;stroke:none"
             d="m 0,0 c 0,-0.051 -0.011,-0.096 -0.039,-0.129 -0.026,-0.04 -0.068,-0.068 -0.124,-0.096 -0.059,-0.022 -0.138,-0.045 -0.242,-0.056 -0.101,-0.011 -0.233,-0.017 -0.393,-0.017 -0.154,0 -0.284,0.006 -0.385,0.017 -0.104,0.011 -0.185,0.034 -0.247,0.056 -0.062,0.028 -0.101,0.056 -0.124,0.096 -0.025,0.033 -0.033,0.078 -0.033,0.129 v 12.867 c 0,0.05 0.008,0.095 0.033,0.135 0.023,0.039 0.062,0.073 0.124,0.095 0.062,0.028 0.143,0.045 0.247,0.056 0.101,0.017 0.231,0.023 0.385,0.023 0.16,0 0.292,-0.006 0.393,-0.023 0.104,-0.011 0.183,-0.028 0.242,-0.056 0.056,-0.022 0.098,-0.056 0.124,-0.095 C -0.011,12.962 0,12.917 0,12.867 Z" /></g><g
           transform="translate(203.653,20.4479)"
           id="g102"><path
             id="path104"
             style="fill:#88868a;fill-opacity:1;fill-rule:nonzero;stroke:none"
             d="m 0,0 c 0,-0.584 -0.107,-1.101 -0.323,-1.556 -0.214,-0.461 -0.511,-0.843 -0.893,-1.163 -0.383,-0.321 -0.832,-0.557 -1.349,-0.72 -0.517,-0.157 -1.076,-0.241 -1.671,-0.241 -0.419,0 -0.804,0.039 -1.161,0.107 -0.357,0.073 -0.674,0.157 -0.955,0.264 -0.278,0.101 -0.514,0.207 -0.702,0.314 -0.188,0.113 -0.32,0.203 -0.394,0.281 -0.075,0.079 -0.129,0.174 -0.165,0.292 -0.034,0.118 -0.054,0.281 -0.054,0.478 0,0.14 0.009,0.258 0.02,0.354 0.014,0.09 0.034,0.168 0.059,0.225 0.025,0.056 0.056,0.095 0.096,0.118 0.039,0.022 0.084,0.033 0.134,0.033 0.09,0 0.217,-0.05 0.382,-0.163 0.163,-0.106 0.374,-0.224 0.63,-0.354 0.255,-0.129 0.567,-0.252 0.93,-0.365 0.362,-0.112 0.781,-0.168 1.255,-0.168 0.36,0 0.689,0.05 0.989,0.146 0.298,0.095 0.554,0.236 0.77,0.41 0.216,0.174 0.379,0.393 0.497,0.652 0.115,0.253 0.172,0.545 0.172,0.876 0,0.354 -0.079,0.652 -0.239,0.905 C -2.135,0.972 -2.346,1.191 -2.61,1.382 -2.871,1.573 -3.172,1.747 -3.509,1.905 -3.846,2.062 -4.192,2.219 -4.546,2.382 -4.899,2.551 -5.242,2.731 -5.577,2.927 -5.911,3.13 -6.209,3.36 -6.47,3.63 c -0.264,0.269 -0.477,0.59 -0.64,0.949 -0.166,0.365 -0.248,0.798 -0.248,1.309 0,0.517 0.096,0.984 0.284,1.388 0.191,0.41 0.452,0.753 0.79,1.028 0.337,0.276 0.738,0.484 1.205,0.63 0.466,0.146 0.966,0.219 1.506,0.219 0.278,0 0.556,-0.028 0.834,-0.073 0.278,-0.051 0.542,-0.113 0.789,-0.191 0.248,-0.085 0.467,-0.174 0.661,-0.27 0.193,-0.101 0.32,-0.18 0.379,-0.242 C -0.848,8.316 -0.809,8.265 -0.789,8.231 -0.77,8.198 -0.753,8.153 -0.742,8.096 -0.728,8.04 -0.719,7.979 -0.711,7.9 -0.705,7.821 -0.702,7.72 -0.702,7.602 -0.702,7.484 -0.708,7.383 -0.716,7.293 -0.728,7.203 -0.742,7.124 -0.759,7.068 -0.778,7.006 -0.806,6.962 -0.843,6.933 -0.877,6.9 -0.919,6.888 -0.961,6.888 c -0.073,0 -0.182,0.045 -0.334,0.135 -0.149,0.09 -0.334,0.191 -0.554,0.304 -0.219,0.112 -0.477,0.213 -0.775,0.309 -0.298,0.09 -0.635,0.14 -1.006,0.14 -0.348,0 -0.649,-0.05 -0.904,-0.14 C -4.793,7.54 -5.003,7.417 -5.172,7.265 -5.338,7.108 -5.464,6.928 -5.546,6.714 -5.63,6.501 -5.672,6.276 -5.672,6.04 -5.672,5.692 -5.591,5.394 -5.43,5.147 -5.27,4.894 -5.057,4.675 -4.79,4.478 -4.523,4.287 -4.22,4.113 -3.88,3.95 -3.54,3.787 -3.194,3.63 -2.84,3.461 -2.486,3.298 -2.141,3.118 -1.801,2.922 -1.461,2.731 -1.157,2.495 -0.891,2.231 -0.624,1.967 -0.407,1.652 -0.244,1.287 -0.081,0.927 0,0.494 0,0" /></g><g
           transform="translate(212.4996,21.5211)"
           id="g106"><path
             id="path108"
             style="fill:#88868a;fill-opacity:1;fill-rule:nonzero;stroke:none"
             d="m 0,0 c 0,0.466 -0.045,0.91 -0.132,1.326 -0.087,0.416 -0.23,0.781 -0.433,1.096 -0.199,0.314 -0.472,0.567 -0.814,0.747 -0.346,0.185 -0.773,0.275 -1.284,0.275 -0.472,0 -0.88,-0.084 -1.22,-0.247 C -4.222,3.028 -4.503,2.792 -4.722,2.489 -4.944,2.18 -5.107,1.82 -5.214,1.405 -5.321,0.983 -5.374,0.528 -5.374,0.034 c 0,-0.472 0.042,-0.922 0.129,-1.338 0.09,-0.415 0.236,-0.781 0.438,-1.09 0.205,-0.314 0.478,-0.561 0.821,-0.741 0.345,-0.186 0.772,-0.276 1.283,-0.276 0.467,0 0.871,0.085 1.214,0.248 0.346,0.168 0.627,0.404 0.846,0.702 0.222,0.303 0.382,0.663 0.486,1.079 C -0.053,-0.961 0,-0.506 0,0 m 1.646,0.101 c 0,-0.702 -0.092,-1.354 -0.278,-1.95 -0.188,-0.59 -0.466,-1.106 -0.834,-1.533 -0.368,-0.433 -0.832,-0.765 -1.388,-1.006 -0.553,-0.242 -1.197,-0.365 -1.93,-0.365 -0.714,0 -1.334,0.106 -1.863,0.32 -0.531,0.213 -0.972,0.522 -1.326,0.927 -0.351,0.404 -0.615,0.893 -0.789,1.472 -0.174,0.579 -0.259,1.231 -0.259,1.967 0,0.702 0.09,1.354 0.273,1.949 0.183,0.59 0.461,1.102 0.829,1.534 0.368,0.433 0.828,0.764 1.382,1 0.553,0.242 1.197,0.36 1.936,0.36 0.713,0 1.334,-0.107 1.865,-0.32 C -0.208,4.242 0.233,3.939 0.587,3.534 0.941,3.13 1.205,2.635 1.382,2.056 1.559,1.478 1.646,0.826 1.646,0.101" /></g><g
           transform="translate(221.4894,29.4265)"
           id="g110"><path
             id="path112"
             style="fill:#88868a;fill-opacity:1;fill-rule:nonzero;stroke:none"
             d="m 0,0 c 0,-0.124 -0.008,-0.219 -0.02,-0.292 -0.014,-0.079 -0.028,-0.135 -0.045,-0.18 -0.014,-0.045 -0.036,-0.079 -0.061,-0.09 -0.026,-0.017 -0.057,-0.028 -0.096,-0.028 -0.045,0 -0.101,0.017 -0.169,0.045 -0.067,0.028 -0.148,0.062 -0.247,0.096 -0.095,0.033 -0.208,0.067 -0.34,0.095 -0.132,0.028 -0.283,0.045 -0.458,0.045 -0.238,0 -0.441,-0.039 -0.606,-0.118 C -2.211,-0.5 -2.346,-0.624 -2.447,-0.787 -2.551,-0.95 -2.624,-1.163 -2.669,-1.422 -2.714,-1.68 -2.736,-2 -2.736,-2.371 v -0.944 h 1.935 c 0.051,0 0.096,-0.011 0.13,-0.034 0.036,-0.022 0.067,-0.062 0.098,-0.112 0.028,-0.056 0.05,-0.124 0.067,-0.208 0.014,-0.084 0.023,-0.185 0.023,-0.309 0,-0.23 -0.028,-0.399 -0.087,-0.5 -0.056,-0.107 -0.135,-0.157 -0.231,-0.157 h -1.935 v -7.597 c 0,-0.05 -0.014,-0.095 -0.04,-0.129 -0.025,-0.039 -0.067,-0.067 -0.129,-0.096 -0.062,-0.022 -0.143,-0.045 -0.244,-0.056 -0.104,-0.011 -0.233,-0.017 -0.388,-0.017 -0.152,0 -0.281,0.006 -0.385,0.017 -0.101,0.011 -0.182,0.034 -0.244,0.056 -0.062,0.029 -0.104,0.057 -0.129,0.096 -0.029,0.034 -0.04,0.079 -0.04,0.129 v 7.597 h -1.222 c -0.104,0 -0.18,0.05 -0.233,0.157 -0.051,0.101 -0.076,0.27 -0.076,0.5 0,0.124 0.006,0.225 0.02,0.309 0.011,0.084 0.031,0.152 0.056,0.208 0.025,0.05 0.059,0.09 0.098,0.112 0.037,0.023 0.082,0.034 0.135,0.034 h 1.222 v 0.899 c 0,0.601 0.056,1.118 0.169,1.551 0.112,0.438 0.283,0.792 0.514,1.067 0.233,0.276 0.522,0.478 0.874,0.613 0.348,0.129 0.761,0.196 1.236,0.196 0.224,0 0.444,-0.022 0.654,-0.061 0.214,-0.045 0.377,-0.09 0.492,-0.135 0.115,-0.051 0.194,-0.096 0.23,-0.13 0.04,-0.039 0.073,-0.089 0.099,-0.151 C -0.042,0.472 -0.025,0.399 -0.014,0.315 -0.006,0.225 0,0.124 0,0" /></g><g
           transform="translate(227.5182,17.8296)"
           id="g114"><path
             id="path116"
             style="fill:#88868a;fill-opacity:1;fill-rule:nonzero;stroke:none"
             d="m 0,0 c 0,-0.185 -0.014,-0.331 -0.039,-0.444 -0.026,-0.107 -0.065,-0.191 -0.116,-0.241 -0.05,-0.051 -0.129,-0.096 -0.23,-0.141 -0.104,-0.045 -0.219,-0.084 -0.351,-0.112 -0.132,-0.028 -0.273,-0.057 -0.419,-0.073 -0.149,-0.017 -0.297,-0.028 -0.444,-0.028 -0.449,0 -0.834,0.056 -1.157,0.179 -0.32,0.118 -0.584,0.298 -0.789,0.54 -0.205,0.236 -0.354,0.545 -0.447,0.91 -0.093,0.371 -0.141,0.809 -0.141,1.309 v 5.063 h -1.213 c -0.096,0 -0.172,0.05 -0.231,0.157 -0.059,0.101 -0.087,0.27 -0.087,0.5 0,0.124 0.009,0.225 0.026,0.309 0.014,0.084 0.036,0.152 0.061,0.208 0.026,0.05 0.059,0.09 0.102,0.112 0.042,0.023 0.087,0.034 0.14,0.034 h 1.202 v 2.062 c 0,0.045 0.012,0.084 0.034,0.124 0.023,0.039 0.065,0.073 0.127,0.101 0.059,0.028 0.143,0.05 0.244,0.062 0.104,0.016 0.233,0.022 0.385,0.022 0.16,0 0.292,-0.006 0.396,-0.022 0.101,-0.012 0.183,-0.034 0.242,-0.062 0.056,-0.028 0.098,-0.062 0.123,-0.101 0.026,-0.04 0.04,-0.079 0.04,-0.124 V 8.282 h 2.225 c 0.05,0 0.095,-0.011 0.134,-0.034 C -0.143,8.226 -0.11,8.186 -0.081,8.136 -0.053,8.08 -0.031,8.012 -0.02,7.928 -0.006,7.844 0,7.743 0,7.619 0,7.389 -0.028,7.22 -0.087,7.119 -0.143,7.012 -0.222,6.962 -0.317,6.962 H -2.542 V 2.129 c 0,-0.595 0.087,-1.05 0.264,-1.354 0.177,-0.303 0.494,-0.455 0.949,-0.455 0.146,0 0.278,0.011 0.393,0.04 0.118,0.028 0.22,0.061 0.31,0.095 0.089,0.028 0.168,0.062 0.23,0.09 0.065,0.028 0.123,0.045 0.174,0.045 0.034,0 0.062,-0.011 0.093,-0.028 0.028,-0.017 0.05,-0.045 0.067,-0.09 C -0.048,0.427 -0.031,0.365 -0.02,0.287 -0.006,0.214 0,0.118 0,0" /></g><g
           transform="translate(241.9835,25.8812)"
           id="g118"><path
             id="path120"
             style="fill:#88868a;fill-opacity:1;fill-rule:nonzero;stroke:none"
             d="M 0,0 C 0,-0.045 -0.008,-0.101 -0.02,-0.163 -0.034,-0.23 -0.056,-0.309 -0.087,-0.405 l -2.554,-8.237 c -0.017,-0.067 -0.048,-0.123 -0.09,-0.168 -0.042,-0.045 -0.101,-0.084 -0.174,-0.107 -0.073,-0.028 -0.174,-0.045 -0.303,-0.056 -0.129,-0.006 -0.29,-0.011 -0.481,-0.011 -0.199,0 -0.368,0.005 -0.503,0.017 -0.134,0.011 -0.241,0.033 -0.32,0.056 -0.081,0.028 -0.14,0.062 -0.18,0.107 -0.039,0.045 -0.067,0.101 -0.087,0.162 l -1.82,6.293 -0.017,0.085 -0.02,-0.085 -1.685,-6.293 c -0.02,-0.067 -0.051,-0.123 -0.093,-0.168 -0.042,-0.045 -0.104,-0.084 -0.188,-0.107 -0.082,-0.028 -0.191,-0.045 -0.323,-0.056 -0.129,-0.006 -0.292,-0.011 -0.486,-0.011 -0.2,0 -0.36,0.005 -0.486,0.017 -0.124,0.011 -0.228,0.033 -0.309,0.056 -0.079,0.028 -0.138,0.062 -0.177,0.107 -0.04,0.045 -0.068,0.101 -0.087,0.162 l -2.532,8.237 c -0.033,0.096 -0.056,0.175 -0.067,0.242 -0.014,0.062 -0.02,0.118 -0.02,0.163 0,0.056 0.012,0.107 0.037,0.14 0.028,0.034 0.07,0.062 0.132,0.085 0.059,0.022 0.143,0.039 0.244,0.045 0.104,0.005 0.228,0.011 0.377,0.011 0.18,0 0.323,-0.006 0.432,-0.017 0.11,-0.011 0.194,-0.022 0.25,-0.045 0.059,-0.022 0.102,-0.056 0.127,-0.101 0.025,-0.039 0.048,-0.09 0.067,-0.146 l 2.09,-7.147 0.02,-0.084 0.017,0.084 1.919,7.147 c 0.011,0.056 0.033,0.107 0.061,0.146 0.029,0.045 0.074,0.079 0.13,0.101 0.059,0.023 0.137,0.034 0.236,0.045 0.101,0.011 0.23,0.017 0.39,0.017 0.155,0 0.281,-0.006 0.382,-0.017 0.099,-0.011 0.177,-0.022 0.233,-0.045 0.059,-0.022 0.102,-0.056 0.127,-0.095 0.025,-0.04 0.045,-0.085 0.059,-0.135 l 2.07,-7.164 0.02,-0.084 0.008,0.084 2.062,7.147 c 0.012,0.056 0.034,0.107 0.062,0.146 0.028,0.045 0.073,0.079 0.135,0.101 0.062,0.023 0.143,0.034 0.25,0.045 0.107,0.011 0.242,0.017 0.41,0.017 0.155,0 0.278,-0.006 0.371,-0.011 0.093,-0.006 0.166,-0.023 0.222,-0.051 0.053,-0.022 0.093,-0.05 0.115,-0.084 C -0.011,0.101 0,0.056 0,0" /></g><g
           transform="translate(248.9085,21.1446)"
           id="g122"><path
             id="path124"
             style="fill:#88868a;fill-opacity:1;fill-rule:nonzero;stroke:none"
             d="m 0,0 h -1.36 c -0.435,0 -0.814,-0.039 -1.135,-0.112 -0.323,-0.073 -0.587,-0.186 -0.8,-0.326 -0.211,-0.146 -0.368,-0.321 -0.467,-0.523 -0.101,-0.202 -0.149,-0.432 -0.149,-0.697 0,-0.449 0.144,-0.809 0.427,-1.073 0.287,-0.269 0.686,-0.399 1.2,-0.399 0.419,0 0.803,0.102 1.16,0.315 0.357,0.214 0.731,0.539 1.124,0.972 z M 1.579,-3.961 C 1.579,-4.04 1.554,-4.096 1.5,-4.135 1.45,-4.175 1.379,-4.203 1.289,-4.22 1.2,-4.242 1.068,-4.248 0.896,-4.248 c -0.168,0 -0.3,0.006 -0.402,0.028 -0.098,0.017 -0.171,0.045 -0.216,0.085 -0.045,0.039 -0.067,0.095 -0.067,0.174 v 0.865 C -0.169,-3.5 -0.59,-3.815 -1.056,-4.04 -1.52,-4.265 -2.014,-4.377 -2.534,-4.377 c -0.455,0 -0.868,0.062 -1.239,0.18 -0.368,0.118 -0.683,0.292 -0.941,0.517 -0.261,0.225 -0.464,0.5 -0.607,0.826 -0.146,0.331 -0.219,0.702 -0.219,1.118 0,0.489 0.101,0.91 0.301,1.27 0.196,0.359 0.483,0.663 0.856,0.899 0.371,0.236 0.829,0.415 1.369,0.533 0.539,0.118 1.146,0.18 1.82,0.18 L 0,1.146 V 1.82 c 0,0.332 -0.037,0.63 -0.107,0.883 -0.07,0.258 -0.185,0.472 -0.342,0.64 -0.158,0.174 -0.36,0.298 -0.61,0.388 C -1.312,3.815 -1.618,3.86 -1.986,3.86 -2.377,3.86 -2.728,3.815 -3.04,3.72 -3.352,3.63 -3.624,3.523 -3.857,3.411 -4.093,3.298 -4.29,3.197 -4.444,3.102 -4.604,3.012 -4.72,2.967 -4.798,2.967 c -0.051,0 -0.096,0.011 -0.135,0.033 -0.037,0.028 -0.07,0.068 -0.101,0.118 -0.028,0.051 -0.048,0.118 -0.062,0.197 -0.014,0.079 -0.02,0.169 -0.02,0.264 0,0.163 0.011,0.287 0.034,0.382 0.022,0.096 0.079,0.18 0.166,0.264 0.084,0.085 0.236,0.18 0.446,0.292 0.211,0.113 0.455,0.22 0.731,0.309 0.278,0.096 0.579,0.175 0.907,0.231 0.326,0.062 0.658,0.095 0.992,0.095 0.624,0 1.152,-0.073 1.59,-0.213 C 0.185,4.798 0.539,4.59 0.809,4.315 1.079,4.045 1.273,3.708 1.396,3.304 1.517,2.899 1.579,2.427 1.579,1.888 Z" /></g><g
           transform="translate(258.7299,25.2912)"
           id="g126"><path
             id="path128"
             style="fill:#88868a;fill-opacity:1;fill-rule:nonzero;stroke:none"
             d="m 0,0 c 0,-0.14 -0.003,-0.258 -0.011,-0.354 -0.006,-0.095 -0.017,-0.174 -0.037,-0.225 -0.019,-0.056 -0.045,-0.095 -0.073,-0.129 -0.028,-0.028 -0.07,-0.039 -0.121,-0.039 -0.05,0 -0.112,0.011 -0.188,0.039 -0.073,0.034 -0.157,0.062 -0.25,0.09 -0.093,0.028 -0.197,0.056 -0.312,0.079 -0.115,0.028 -0.241,0.039 -0.376,0.039 -0.16,0 -0.318,-0.028 -0.472,-0.096 C -1.995,-0.657 -2.158,-0.764 -2.326,-0.91 -2.497,-1.062 -2.674,-1.259 -2.86,-1.5 -3.048,-1.742 -3.253,-2.045 -3.478,-2.394 v -5.702 c 0,-0.051 -0.011,-0.096 -0.039,-0.13 -0.026,-0.039 -0.068,-0.067 -0.124,-0.095 -0.059,-0.023 -0.138,-0.045 -0.242,-0.056 -0.101,-0.012 -0.233,-0.017 -0.393,-0.017 -0.154,0 -0.284,0.005 -0.385,0.017 -0.104,0.011 -0.185,0.033 -0.247,0.056 -0.062,0.028 -0.101,0.056 -0.124,0.095 -0.025,0.034 -0.033,0.079 -0.033,0.13 v 8.669 c 0,0.051 0.008,0.09 0.028,0.129 0.02,0.034 0.056,0.068 0.115,0.096 0.059,0.028 0.132,0.045 0.222,0.056 0.09,0.011 0.208,0.017 0.357,0.017 0.14,0 0.258,-0.006 0.351,-0.017 0.093,-0.011 0.166,-0.028 0.216,-0.056 0.051,-0.028 0.087,-0.062 0.11,-0.096 0.022,-0.039 0.034,-0.078 0.034,-0.129 v -1.264 c 0.238,0.348 0.46,0.629 0.671,0.848 0.208,0.219 0.404,0.388 0.59,0.517 0.188,0.124 0.371,0.208 0.556,0.259 0.183,0.045 0.365,0.073 0.554,0.073 C -1.18,1.006 -1.084,1 -0.978,0.989 -0.871,0.978 -0.761,0.961 -0.646,0.938 -0.531,0.91 -0.427,0.882 -0.332,0.848 -0.239,0.82 -0.174,0.787 -0.135,0.753 -0.096,0.719 -0.07,0.691 -0.059,0.663 -0.045,0.635 -0.034,0.596 -0.025,0.551 -0.014,0.506 -0.008,0.438 -0.006,0.354 -0.003,0.27 0,0.152 0,0" /></g><g
           transform="translate(266.3376,22.3751)"
           id="g130"><path
             id="path132"
             style="fill:#88868a;fill-opacity:1;fill-rule:nonzero;stroke:none"
             d="M 0,0 C 0.02,0.837 -0.166,1.489 -0.556,1.967 -0.947,2.438 -1.528,2.68 -2.295,2.68 -2.689,2.68 -3.034,2.601 -3.332,2.455 -3.63,2.309 -3.88,2.113 -4.079,1.871 -4.279,1.624 -4.433,1.343 -4.543,1.017 -4.655,0.691 -4.714,0.354 -4.728,0 Z M 1.599,-0.472 C 1.599,-0.719 1.537,-0.899 1.41,-1.006 1.287,-1.113 1.141,-1.163 0.98,-1.163 h -5.708 c 0,-0.483 0.048,-0.916 0.146,-1.304 0.095,-0.382 0.258,-0.713 0.483,-0.988 0.225,-0.276 0.52,-0.489 0.879,-0.635 0.363,-0.152 0.804,-0.225 1.327,-0.225 0.412,0 0.781,0.034 1.104,0.101 0.323,0.067 0.601,0.146 0.837,0.225 0.236,0.084 0.43,0.163 0.581,0.23 0.152,0.068 0.267,0.101 0.343,0.101 0.045,0 0.087,-0.011 0.121,-0.033 C 1.129,-3.714 1.157,-3.748 1.177,-3.793 1.194,-3.838 1.211,-3.899 1.219,-3.984 1.228,-4.062 1.233,-4.158 1.233,-4.276 1.233,-4.36 1.23,-4.433 1.225,-4.495 1.216,-4.551 1.211,-4.607 1.2,-4.658 1.191,-4.703 1.174,-4.748 1.152,-4.787 1.129,-4.826 1.101,-4.86 1.065,-4.899 1.031,-4.933 0.924,-4.989 0.753,-5.068 0.579,-5.152 0.354,-5.231 0.079,-5.304 -0.199,-5.383 -0.517,-5.45 -0.879,-5.512 c -0.363,-0.062 -0.75,-0.095 -1.161,-0.095 -0.713,0 -1.337,0.101 -1.873,0.303 -0.537,0.197 -0.989,0.494 -1.355,0.882 -0.365,0.393 -0.64,0.882 -0.828,1.478 -0.186,0.59 -0.278,1.275 -0.278,2.056 0,0.748 0.095,1.416 0.289,2.012 0.191,0.59 0.469,1.095 0.832,1.511 0.362,0.416 0.8,0.731 1.314,0.955 0.514,0.219 1.09,0.332 1.725,0.332 0.68,0 1.259,-0.113 1.739,-0.332 C 0.003,3.377 0.396,3.079 0.705,2.714 1.011,2.343 1.239,1.91 1.382,1.41 1.528,0.916 1.599,0.382 1.599,-0.185 Z" /></g><g
           transform="translate(136.5734,92.9716)"
           id="g134"><path
             id="path136"
             style="fill:#0087cd;fill-opacity:1;fill-rule:evenodd;stroke:none"
             d="M 0,0 C 32.013,0 61.194,-6.427 82.914,-18.377 59.791,-8.164 31.063,-6.622 0,-6.622 c -31.063,0 -59.791,-1.542 -82.914,-11.755 C -61.194,-6.427 -32.013,0 0,0" /></g><g
           transform="translate(102.5581,3.4521)"
           id="g138"><path
             id="path140"
             style="fill:#88868a;fill-opacity:1;fill-rule:evenodd;stroke:none"
             d="M 0,0 1.243,-0.316 C 0.984,-1.335 0.512,-2.112 -0.161,-2.647 -0.84,-3.182 -1.663,-3.452 -2.647,-3.452 c -1.006,0 -1.829,0.207 -2.462,0.621 -0.633,0.409 -1.116,1.007 -1.45,1.784 -0.328,0.782 -0.495,1.622 -0.495,2.52 0,0.978 0.19,1.83 0.558,2.554 0.374,0.731 0.909,1.283 1.6,1.657 0.684,0.38 1.444,0.57 2.272,0.57 0.938,0 1.726,-0.242 2.371,-0.719 C 0.385,5.057 0.828,4.384 1.082,3.521 L -0.138,3.233 C -0.357,3.912 -0.673,4.413 -1.087,4.724 -1.502,5.034 -2.02,5.19 -2.652,5.19 -3.372,5.19 -3.97,5.017 -4.459,4.672 -4.942,4.327 -5.282,3.861 -5.477,3.28 -5.673,2.698 -5.771,2.1 -5.771,1.479 c 0,-0.8 0.115,-1.496 0.345,-2.089 0.236,-0.598 0.593,-1.041 1.088,-1.335 0.489,-0.299 1.024,-0.443 1.594,-0.443 0.696,0 1.283,0.202 1.766,0.599 C -0.495,-1.387 -0.173,-0.788 0,0 m 5.253,0.109 c 0,1.26 0.345,2.192 1.047,2.797 0.587,0.5 1.3,0.753 2.14,0.753 0.932,0 1.698,-0.305 2.29,-0.92 0.593,-0.61 0.892,-1.456 0.892,-2.532 0,-0.88 -0.132,-1.565 -0.397,-2.065 -0.259,-0.507 -0.644,-0.892 -1.145,-1.168 -0.5,-0.282 -1.047,-0.415 -1.64,-0.415 -0.949,0 -1.72,0.3 -2.307,0.915 -0.587,0.61 -0.88,1.485 -0.88,2.635 m 1.179,0 c 0,-0.874 0.196,-1.524 0.576,-1.956 0.379,-0.431 0.857,-0.65 1.432,-0.65 0.57,0 1.048,0.219 1.427,0.656 0.38,0.431 0.57,1.093 0.57,1.985 0,0.846 -0.19,1.478 -0.576,1.916 C 9.482,2.491 9.004,2.704 8.44,2.704 7.865,2.704 7.387,2.491 7.008,2.06 6.628,1.628 6.432,0.978 6.432,0.109 m 9.569,5.984 h 1.151 v -9.384 h -1.151 z m 5.563,-5.984 c 0,1.26 0.351,2.192 1.053,2.797 0.581,0.5 1.295,0.753 2.135,0.753 0.937,0 1.703,-0.305 2.289,-0.92 0.599,-0.61 0.892,-1.456 0.892,-2.532 0,-0.88 -0.132,-1.565 -0.391,-2.065 -0.265,-0.507 -0.644,-0.892 -1.145,-1.168 -0.506,-0.282 -1.053,-0.415 -1.645,-0.415 -0.95,0 -1.721,0.3 -2.308,0.915 -0.586,0.61 -0.88,1.485 -0.88,2.635 m 1.185,0 c 0,-0.874 0.19,-1.524 0.57,-1.956 0.38,-0.431 0.857,-0.65 1.433,-0.65 0.575,0 1.047,0.219 1.426,0.656 0.38,0.431 0.57,1.093 0.57,1.985 0,0.846 -0.19,1.478 -0.57,1.916 -0.385,0.431 -0.857,0.644 -1.426,0.644 -0.576,0 -1.053,-0.213 -1.433,-0.644 -0.38,-0.432 -0.57,-1.082 -0.57,-1.951 m 9.591,-3.4 v 6.795 h 1.03 V 2.555 c 0.213,0.333 0.501,0.598 0.852,0.799 0.357,0.207 0.759,0.305 1.208,0.305 0.506,0 0.921,-0.103 1.237,-0.31 0.328,-0.213 0.552,-0.501 0.685,-0.881 0.541,0.794 1.237,1.191 2.1,1.191 0.673,0 1.191,-0.184 1.553,-0.558 0.363,-0.374 0.547,-0.949 0.547,-1.726 V -3.291 H 40.407 V 0.99 c 0,0.46 -0.04,0.794 -0.115,1.001 -0.075,0.195 -0.213,0.362 -0.403,0.489 -0.196,0.121 -0.431,0.184 -0.696,0.184 -0.478,0 -0.875,-0.161 -1.191,-0.478 C 37.691,1.87 37.53,1.358 37.53,0.662 v -3.953 h -1.151 v 4.419 c 0,0.512 -0.092,0.897 -0.282,1.15 -0.189,0.254 -0.494,0.386 -0.92,0.386 -0.328,0 -0.627,-0.086 -0.898,-0.259 C 34.003,2.232 33.802,1.985 33.681,1.657 33.554,1.329 33.491,0.852 33.491,0.236 v -3.527 z m 15.04,0 h -1.07 v 9.384 h 1.151 V 2.744 c 0.489,0.61 1.11,0.915 1.864,0.915 0.414,0 0.811,-0.08 1.185,-0.253 0.374,-0.167 0.679,-0.403 0.921,-0.708 0.241,-0.305 0.431,-0.673 0.569,-1.104 0.138,-0.432 0.202,-0.892 0.202,-1.381 0,-1.168 -0.288,-2.066 -0.863,-2.704 -0.576,-0.633 -1.266,-0.95 -2.072,-0.95 -0.805,0 -1.432,0.334 -1.887,1.002 z m -0.017,3.452 c 0,-0.817 0.115,-1.404 0.334,-1.766 0.362,-0.593 0.851,-0.892 1.472,-0.892 0.507,0 0.938,0.219 1.307,0.656 0.368,0.437 0.552,1.087 0.552,1.956 0,0.886 -0.178,1.542 -0.529,1.962 -0.351,0.426 -0.777,0.639 -1.278,0.639 -0.506,0 -0.938,-0.219 -1.306,-0.656 C 47.547,1.622 47.363,0.99 47.363,0.161 m 9.303,5.932 h 1.151 V 4.77 h -1.151 z m 0,-2.589 h 1.151 v -6.795 h -1.151 z m 10.397,-5.955 c -0.426,-0.362 -0.84,-0.621 -1.231,-0.771 -0.397,-0.15 -0.817,-0.219 -1.272,-0.219 -0.748,0 -1.317,0.179 -1.72,0.541 -0.403,0.368 -0.599,0.834 -0.599,1.398 0,0.34 0.069,0.639 0.225,0.915 0.149,0.276 0.351,0.495 0.592,0.662 0.248,0.167 0.524,0.293 0.835,0.38 0.224,0.057 0.564,0.115 1.018,0.172 0.932,0.109 1.617,0.242 2.06,0.397 0,0.155 0.006,0.259 0.006,0.299 0,0.472 -0.11,0.8 -0.328,0.996 -0.294,0.259 -0.731,0.385 -1.312,0.385 -0.541,0 -0.944,-0.092 -1.203,-0.282 -0.259,-0.19 -0.448,-0.523 -0.569,-1.007 l -1.128,0.156 c 0.104,0.477 0.27,0.868 0.506,1.162 0.231,0.299 0.576,0.529 1.019,0.69 0.443,0.156 0.955,0.236 1.542,0.236 0.581,0 1.047,-0.069 1.415,-0.201 0.363,-0.138 0.627,-0.311 0.8,-0.518 0.167,-0.207 0.287,-0.466 0.356,-0.782 0.041,-0.196 0.058,-0.553 0.058,-1.065 v -1.536 c 0,-1.07 0.023,-1.749 0.075,-2.031 0.046,-0.282 0.144,-0.558 0.288,-0.817 h -1.203 c -0.115,0.236 -0.196,0.518 -0.23,0.84 m -0.092,2.572 c -0.42,-0.173 -1.047,-0.317 -1.882,-0.437 -0.477,-0.064 -0.811,-0.144 -1.006,-0.231 -0.196,-0.08 -0.351,-0.207 -0.455,-0.374 -0.109,-0.161 -0.161,-0.345 -0.161,-0.546 0,-0.305 0.115,-0.564 0.351,-0.765 0.23,-0.207 0.57,-0.311 1.018,-0.311 0.443,0 0.84,0.098 1.186,0.293 0.345,0.196 0.598,0.461 0.759,0.794 0.127,0.265 0.19,0.645 0.19,1.157 z" /></g><g
           transform="translate(0,33.9457)"
           id="g142"><path
             id="path144"
             style="fill:#88868a;fill-opacity:1;fill-rule:evenodd;stroke:none"
             d="m 0,0 h 251.86 15.822 V -1.381 H 0 Z" /></g></g></g></g></svg>